<svg version="1.1" xmlns="http://www.w3.org/2000/svg" viewBox="0 0 589 193" width="589" height="193"><!-- svg-source:excalidraw --><metadata></metadata><defs><style class="style-fonts">
      </style></defs><g stroke-linecap="round" transform="translate(10 10) rotate(0 153.5 86.5)"><path d="M32 0 C118.08 0, 204.17 0, 275 0 M275 0 C296.33 0, 307 10.67, 307 32 M307 32 C307 61.26, 307 90.52, 307 141 M307 141 C307 162.33, 296.33 173, 275 173 M275 173 C189.95 173, 104.9 173, 32 173 M32 173 C10.67 173, 0 162.33, 0 141 M0 141 C0 100.72, 0 60.45, 0 32 M0 32 C0 10.67, 10.67 0, 32 0" stroke="#1c7ed6" stroke-width="1.5" fill="none" stroke-dasharray="1.5 7"></path></g><a href="controller.svg"><g transform="translate(24 20) rotate(0 38.5 11)"><rect x="-3" y="-2.8557" width="78.704" height="23.824" style="fill: var(--diagram-halo, #ffffff)"></rect><g fill="#1c7ed6"><rect x="-2" y="-1.8557" width="76.704" height="21.824" fill="none" pointer-events="all"></rect><path transform="translate(0 14.3203) scale(0.016 -0.016)" d="M395 -9Q290 -9 215 35Q140 79 99.5 160.5Q59 242 59 353Q59 436 82 502.5Q105 569 148 616.5Q191 664 253.5 689Q316 714 395 714Q455 714 510.5 697Q566 680 606 649Q622 638 627 624Q632 610 628.5 597.5Q625 585 615.5 576.5Q606 568 592 567.5Q578 567 562 578Q527 605 485.5 617.5Q444 630 397 630Q320 630 266.5 597.5Q213 565 185.5 503.5Q158 442 158 353Q158 265 185.5 202.5Q213 140 266.5 107.5Q320 75 397 75Q444 75 486.5 88Q529 101 565 128Q581 139 594.5 138Q608 137 617 129.5Q626 122 629.5 109.5Q633 97 629 84Q625 71 611 61Q570 26 513.5 8.5Q457 -9 395 -9Z"></path><path transform="translate(10.24 14.3203) scale(0.016 -0.016)" d="M280 -9Q208 -9 155 22Q102 53 73 110Q44 167 44 244Q44 302 60.5 348.5Q77 395 108 428Q139 461 182.5 478.5Q226 496 280 496Q352 496 405 465Q458 434 487 377.5Q516 321 516 244Q516 186 499.5 139Q483 92 452 59Q421 26 377.5 8.5Q334 -9 280 -9ZM280 63Q324 63 356.5 84Q389 105 406.5 145Q424 185 424 244Q424 332 385 378Q346 424 280 424Q237 424 204.5 403.5Q172 383 154 343Q136 303 136 244Q136 156 175.5 109.5Q215 63 280 63Z"></path><path transform="translate(19.2 14.3203) scale(0.016 -0.016)" d="M118 -7Q97 -7 85 5Q73 17 73 40L73 448Q73 471 85 482.5Q97 494 118 494Q139 494 150.5 482.5Q162 471 162 448L162 366L151 381Q172 438 219.5 467Q267 496 328 496Q387 496 425 475Q463 454 482 411Q501 368 501 302L501 40Q501 17 489.5 5Q478 -7 456 -7Q434 -7 422 5Q410 17 410 40L410 297Q410 362 385 392Q360 422 305 422Q241 422 202.5 382.5Q164 343 164 276L164 40Q164 -7 118 -7Z"></path><path transform="translate(28.352 14.3203) scale(0.016 -0.016)" d="M275 -9Q216 -9 176.5 12Q137 33 117.5 73Q98 113 98 171L98 417L34 417Q16 417 6 426.5Q-4 436 -4 452Q-4 469 6 478Q16 487 34 487L98 487L98 596Q98 619 110 630.5Q122 642 144 642Q166 642 177.5 630.5Q189 619 189 596L189 487L310 487Q329 487 339 478Q349 469 349 452Q349 436 339 426.5Q329 417 310 417L189 417L189 179Q189 124 212 96Q235 68 288 68Q307 68 320 71.5Q333 75 343 75Q352 76 358.5 69Q365 62 365 43Q365 29 360.5 17.5Q356 6 343 2Q331 -2 311 -5.5Q291 -9 275 -9Z"></path><path transform="translate(34.08 14.3203) scale(0.016 -0.016)" d="M120 -7Q97 -7 85 5Q73 17 73 40L73 448Q73 471 85 482.5Q97 494 118 494Q139 494 150.5 482.5Q162 471 162 448L162 371L152 371Q168 431 212 462Q256 493 323 497Q339 498 349 489.5Q359 481 360 461Q361 442 351 430.5Q341 419 320 417L302 416Q236 409 200.5 373Q165 337 165 274L165 40Q165 17 153.5 5Q142 -7 120 -7Z"></path><path transform="translate(39.808 14.3203) scale(0.016 -0.016)" d="M280 -9Q208 -9 155 22Q102 53 73 110Q44 167 44 244Q44 302 60.5 348.5Q77 395 108 428Q139 461 182.5 478.5Q226 496 280 496Q352 496 405 465Q458 434 487 377.5Q516 321 516 244Q516 186 499.5 139Q483 92 452 59Q421 26 377.5 8.5Q334 -9 280 -9ZM280 63Q324 63 356.5 84Q389 105 406.5 145Q424 185 424 244Q424 332 385 378Q346 424 280 424Q237 424 204.5 403.5Q172 383 154 343Q136 303 136 244Q136 156 175.5 109.5Q215 63 280 63Z"></path><path transform="translate(48.768 14.3203) scale(0.016 -0.016)" d="M226 -9Q151 -9 112 35.5Q73 80 73 164L73 666Q73 689 85 700.5Q97 712 118 712Q140 712 152 700.5Q164 689 164 666L164 171Q164 119 185.5 93.5Q207 68 247 68Q256 68 263 68.5Q270 69 277 70Q288 71 293 64Q298 57 298 36Q298 17 289.5 6.5Q281 -4 262 -7Q253 -8 244 -8.5Q235 -9 226 -9Z"></path><path transform="translate(53.584 14.3203) scale(0.016 -0.016)" d="M226 -9Q151 -9 112 35.5Q73 80 73 164L73 666Q73 689 85 700.5Q97 712 118 712Q140 712 152 700.5Q164 689 164 666L164 171Q164 119 185.5 93.5Q207 68 247 68Q256 68 263 68.5Q270 69 277 70Q288 71 293 64Q298 57 298 36Q298 17 289.5 6.5Q281 -4 262 -7Q253 -8 244 -8.5Q235 -9 226 -9Z"></path><path transform="translate(58.32 14.3203) scale(0.016 -0.016)" d="M298 -9Q219 -9 162.5 21.5Q106 52 75 108.5Q44 165 44 242Q44 318 74.5 375Q105 432 158.5 464Q212 496 281 496Q330 496 369.5 479.5Q409 463 437 432Q465 401 479.5 356.5Q494 312 494 256Q494 240 484.5 231.5Q475 223 457 223L115 223L115 281L434 281L417 267Q417 319 401.5 355.5Q386 392 356.5 411Q327 430 283 430Q235 430 201 407.5Q167 385 149 344.5Q131 304 131 251L131 245Q131 155 174 109Q217 63 298 63Q330 63 363.5 71Q397 79 428 100Q443 109 455.5 108.5Q468 108 476 100.5Q484 93 486 82.5Q488 72 483 60Q478 48 464 39Q431 16 385.5 3.5Q340 -9 298 -9Z"></path><path transform="translate(66.864 14.3203) scale(0.016 -0.016)" d="M120 -7Q97 -7 85 5Q73 17 73 40L73 448Q73 471 85 482.5Q97 494 118 494Q139 494 150.5 482.5Q162 471 162 448L162 371L152 371Q168 431 212 462Q256 493 323 497Q339 498 349 489.5Q359 481 360 461Q361 442 351 430.5Q341 419 320 417L302 416Q236 409 200.5 373Q165 337 165 274L165 40Q165 17 153.5 5Q142 -7 120 -7Z"></path></g></g></a><g stroke-linecap="round" transform="translate(26 73) rotate(0 90 47)"><path d="M0 0 L180 0 L180 94 L0 94" stroke="none" stroke-width="0" fill="#6babe4"></path><path d="M0 0 C46.59 0, 93.18 0, 180 0 M0 0 C67.64 0, 135.28 0, 180 0 M180 0 C180 33.81, 180 67.63, 180 94 M180 0 C180 26.59, 180 53.19, 180 94 M180 94 C125.68 94, 71.36 94, 0 94 M180 94 C130.55 94, 81.1 94, 0 94 M0 94 C0 59.38, 0 24.77, 0 0 M0 94 C0 59.19, 0 24.38, 0 0" stroke="transparent" stroke-width="2" fill="none"></path></g><a href="controller-mcu.svg"><g transform="translate(31 78) rotate(0 18 10)"><rect x="-3" y="-2.6237" width="37.696" height="21.096" style="fill: #6babe4"></rect><g fill="#1e1e1e"><rect x="-2" y="-1.6237" width="35.696" height="19.096" fill="none" pointer-events="all"></rect><path transform="translate(0 12.5303) scale(0.014 -0.014)" d="M129 -7Q109 -7 98 5Q87 17 87 37L87 668Q87 689 98.5 700.5Q110 712 130 712Q148 712 158.5 705Q169 698 178 681L446 178L415 178L683 681Q692 698 702 705Q712 712 730 712Q750 712 761 700.5Q772 689 772 668L772 37Q772 17 761.5 5Q751 -7 730 -7Q709 -7 698.5 5Q688 17 688 37L688 576L710 576L470 127Q462 114 453.5 107.5Q445 101 430 101Q416 101 406.5 108Q397 115 390 127L147 577L171 577L171 37Q171 17 160.5 5Q150 -7 129 -7Z"></path><path transform="translate(12.012 12.5303) scale(0.014 -0.014)" d="M395 -9Q290 -9 215 35Q140 79 99.5 160.5Q59 242 59 353Q59 436 82 502.5Q105 569 148 616.5Q191 664 253.5 689Q316 714 395 714Q455 714 510.5 697Q566 680 606 649Q622 638 627 624Q632 610 628.5 597.5Q625 585 615.5 576.5Q606 568 592 567.5Q578 567 562 578Q527 605 485.5 617.5Q444 630 397 630Q320 630 266.5 597.5Q213 565 185.5 503.5Q158 442 158 353Q158 265 185.5 202.5Q213 140 266.5 107.5Q320 75 397 75Q444 75 486.5 88Q529 101 565 128Q581 139 594.5 138Q608 137 617 129.5Q626 122 629.5 109.5Q633 97 629 84Q625 71 611 61Q570 26 513.5 8.5Q457 -9 395 -9Z"></path><path transform="translate(21.462 12.5303) scale(0.014 -0.014)" d="M366 -9Q296 -9 242.5 9.5Q189 28 153 64.5Q117 101 98.5 155.5Q80 210 80 282L80 665Q80 689 92 700.5Q104 712 126 712Q149 712 161 700.5Q173 689 173 665L173 285Q173 178 222 125.5Q271 73 366 73Q461 73 510 125.5Q559 178 559 285L559 665Q559 689 571 700.5Q583 712 605 712Q627 712 639 700.5Q651 689 651 665L651 282Q651 187 618.5 122Q586 57 522.5 24Q459 -9 366 -9Z"></path></g></g></a><g stroke-linecap="round" transform="translate(206 126) rotate(0 4 4)"><path d="M2 0 C2.9 0, 3.79 0, 6 0 C7.33 0, 8 0.67, 8 2 C8 3.29, 8 4.58, 8 6 C8 7.33, 7.33 8, 6 8 C4.46 8, 2.92 8, 2 8 C0.67 8, 0 7.33, 0 6 C0 4.64, 0 3.27, 0 2 C0 0.67, 0.67 0, 2 0" stroke="none" stroke-width="0" fill="#1e1e1e"></path><path d="M2 0 C3.55 0, 5.1 0, 6 0 M2 0 C3.52 0, 5.03 0, 6 0 M6 0 C7.33 0, 8 0.67, 8 2 M6 0 C7.33 0, 8 0.67, 8 2 M8 2 C8 3.46, 8 4.91, 8 6 M8 2 C8 3.56, 8 5.12, 8 6 M8 6 C8 7.33, 7.33 8, 6 8 M8 6 C8 7.33, 7.33 8, 6 8 M6 8 C4.79 8, 3.58 8, 2 8 M6 8 C4.55 8, 3.1 8, 2 8 M2 8 C0.67 8, 0 7.33, 0 6 M2 8 C0.67 8, 0 7.33, 0 6 M0 6 C0 4.47, 0 2.93, 0 2 M0 6 C0 4.56, 0 3.11, 0 2 M0 2 C0 0.67, 0.67 0, 2 0 M0 2 C0 0.67, 0.67 0, 2 0" stroke="#1e1e1e" stroke-width="1" fill="none"></path></g><g stroke-linecap="round" transform="translate(34 101) rotate(0 17 26.5)"><path d="M0 0 L34 0 L34 53 L0 53" stroke="none" stroke-width="0" fill="#b1d3f1"></path><path d="M0 0 C10.92 0, 21.84 0, 34 0 M0 0 C9.41 0, 18.82 0, 34 0 M34 0 C34 17.14, 34 34.28, 34 53 M34 0 C34 14.56, 34 29.12, 34 53 M34 53 C23.16 53, 12.31 53, 0 53 M34 53 C27.04 53, 20.09 53, 0 53 M0 53 C0 37.85, 0 22.7, 0 0 M0 53 C0 38.43, 0 23.86, 0 0" stroke="transparent" stroke-width="1" fill="none"></path></g><a href="controller-mcu-app.svg"><g transform="translate(39 106) rotate(0 10.2421875 9)"><rect x="-3" y="-2.3918" width="26.484" height="18.368" style="fill: #b1d3f1"></rect><g fill="#1e1e1e"><rect x="-2" y="-1.3918" width="24.484" height="16.368" fill="none" pointer-events="all"></rect><path transform="translate(0 10.7402) scale(0.012 -0.012)" d="M228 -9Q178 -9 137.5 11Q97 31 74.5 65Q52 99 52 141Q52 195 79 226Q106 257 170 270.5Q234 284 342 284L389 284L389 226L344 226Q267 226 222.5 219Q178 212 160 194.5Q142 177 142 146Q142 107 169.5 82Q197 57 245 57Q283 57 312 75.5Q341 94 358 125.5Q375 157 375 198L375 313Q375 372 351 398.5Q327 425 270 425Q237 425 202 416Q167 407 129 388Q114 381 103 383.5Q92 386 85.5 395.5Q79 405 78.5 416.5Q78 428 83.5 439Q89 450 103 455Q147 477 190.5 486.5Q234 496 272 496Q337 496 379 475.5Q421 455 442 412.5Q463 370 463 304L463 40Q463 17 452 5Q441 -7 420 -7Q400 -7 388.5 5Q377 17 377 40L377 111L386 111Q378 74 356 47Q334 20 301.5 5.5Q269 -9 228 -9Z"></path><path transform="translate(6.396 10.7402) scale(0.012 -0.012)" d="M118 -187Q97 -187 85 -175Q73 -163 73 -141L73 448Q73 471 85 482.5Q97 494 118 494Q140 494 151.5 482.5Q163 471 163 448L163 357L152 375Q168 430 215 463Q262 496 328 496Q393 496 441 465.5Q489 435 516 378.5Q543 322 543 244Q543 167 516.5 109.5Q490 52 441.5 21.5Q393 -9 328 -9Q263 -9 216 24Q169 57 153 111L164 111L164 -141Q164 -163 152 -175Q140 -187 118 -187ZM307 63Q350 63 382.5 84Q415 105 433 145Q451 185 451 244Q451 332 412 378Q373 424 307 424Q263 424 230.5 403.5Q198 383 180.5 343Q163 303 163 244Q163 156 202 109.5Q241 63 307 63Z"></path><path transform="translate(13.44 10.7402) scale(0.012 -0.012)" d="M118 -187Q97 -187 85 -175Q73 -163 73 -141L73 448Q73 471 85 482.5Q97 494 118 494Q140 494 151.5 482.5Q163 471 163 448L163 357L152 375Q168 430 215 463Q262 496 328 496Q393 496 441 465.5Q489 435 516 378.5Q543 322 543 244Q543 167 516.5 109.5Q490 52 441.5 21.5Q393 -9 328 -9Q263 -9 216 24Q169 57 153 111L164 111L164 -141Q164 -163 152 -175Q140 -187 118 -187ZM307 63Q350 63 382.5 84Q415 105 433 145Q451 185 451 244Q451 332 412 378Q373 424 307 424Q263 424 230.5 403.5Q198 383 180.5 343Q163 303 163 244Q163 156 202 109.5Q241 63 307 63Z"></path></g></g></a><g stroke-linecap="round" transform="translate(68 126) rotate(0 4 4)"><path d="M2 0 C3.37 0, 4.73 0, 6 0 C7.33 0, 8 0.67, 8 2 C8 3.19, 8 4.38, 8 6 C8 7.33, 7.33 8, 6 8 C4.44 8, 2.89 8, 2 8 C0.67 8, 0 7.33, 0 6 C0 4.96, 0 3.93, 0 2 C0 0.67, 0.67 0, 2 0" stroke="none" stroke-width="0" fill="#1e1e1e"></path><path d="M2 0 C2.96 0, 3.92 0, 6 0 M2 0 C3.27 0, 4.54 0, 6 0 M6 0 C7.33 0, 8 0.67, 8 2 M6 0 C7.33 0, 8 0.67, 8 2 M8 2 C8 3.17, 8 4.34, 8 6 M8 2 C8 3.35, 8 4.7, 8 6 M8 6 C8 7.33, 7.33 8, 6 8 M8 6 C8 7.33, 7.33 8, 6 8 M6 8 C5 8, 3.99 8, 2 8 M6 8 C4.51 8, 3.02 8, 2 8 M2 8 C0.67 8, 0 7.33, 0 6 M2 8 C0.67 8, 0 7.33, 0 6 M0 6 C0 4.51, 0 3.02, 0 2 M0 6 C0 4.88, 0 3.75, 0 2 M0 2 C0 0.67, 0.67 0, 2 0 M0 2 C0 0.67, 0.67 0, 2 0" stroke="#1e1e1e" stroke-width="1" fill="none"></path></g><g stroke-linecap="round" transform="translate(402 61) rotate(0 88.5 54.5)"><path d="M27.25 0 C75.29 0, 123.33 0, 149.75 0 M149.75 0 C167.92 0, 177 9.08, 177 27.25 M177 27.25 C177 42.18, 177 57.11, 177 81.75 M177 81.75 C177 99.92, 167.92 109, 149.75 109 M149.75 109 C123.7 109, 97.65 109, 27.25 109 M27.25 109 C9.08 109, 0 99.92, 0 81.75 M0 81.75 C0 67.74, 0 53.73, 0 27.25 M0 27.25 C0 9.08, 9.08 0, 27.25 0" stroke="#37b24d" stroke-width="1.5" fill="none" stroke-dasharray="1.5 7"></path></g><a href="display.svg"><g transform="translate(416 71) rotate(0 29 11)"><rect x="-3" y="-2.8557" width="60.4" height="23.824" style="fill: var(--diagram-halo, #ffffff)"></rect><g fill="#37b24d"><rect x="-2" y="-1.8557" width="58.4" height="21.824" fill="none" pointer-events="all"></rect><path transform="translate(0 14.3203) scale(0.016 -0.016)" d="M135 0Q111 0 98 13Q85 26 85 50L85 655Q85 679 98 692Q111 705 135 705L328 705Q501 705 594.5 614.5Q688 524 688 353Q688 268 664 202Q640 136 594 91.5Q548 47 481.5 23.5Q415 0 328 0ZM178 79L322 79Q390 79 440 96Q490 113 523.5 147Q557 181 574 232.5Q591 284 591 353Q591 490 523.5 558Q456 626 322 626L178 626Z"></path><path transform="translate(11.952 14.3203) scale(0.016 -0.016)" d="M118 -5Q97 -5 85 8Q73 21 73 44L73 443Q73 467 85 479.5Q97 492 118 492Q140 492 152 479.5Q164 467 164 443L164 44Q164 21 152.5 8Q141 -5 118 -5ZM118 600Q91 600 75.5 614.5Q60 629 60 653Q60 679 75.5 692.5Q91 706 118 706Q147 706 161.5 692.5Q176 679 176 653Q176 629 161.5 614.5Q147 600 118 600Z"></path><path transform="translate(15.744 14.3203) scale(0.016 -0.016)" d="M241 -9Q196 -9 150.5 1.5Q105 12 65 38Q54 45 49.5 55.5Q45 66 46.5 76.5Q48 87 55 95Q62 103 72.5 104.5Q83 106 95 99Q134 77 170.5 68Q207 59 243 59Q298 59 326 79Q354 99 354 132Q354 160 335.5 175.5Q317 191 278 199L185 218Q123 232 91.5 264.5Q60 297 60 348Q60 393 84.5 426.5Q109 460 153 478Q197 496 254 496Q298 496 337.5 484.5Q377 473 409 450Q421 443 424.5 432.5Q428 422 425.5 411.5Q423 401 416 394Q409 387 398 385.5Q387 384 374 391Q345 411 314.5 419.5Q284 428 254 428Q200 428 172.5 407Q145 386 145 352Q145 326 161.5 309Q178 292 214 284L307 265Q372 251 405 220.5Q438 190 438 138Q438 70 384.5 30.5Q331 -9 241 -9Z"></path><path transform="translate(23.472 14.3203) scale(0.016 -0.016)" d="M118 -187Q97 -187 85 -175Q73 -163 73 -141L73 448Q73 471 85 482.5Q97 494 118 494Q140 494 151.5 482.5Q163 471 163 448L163 357L152 375Q168 430 215 463Q262 496 328 496Q393 496 441 465.5Q489 435 516 378.5Q543 322 543 244Q543 167 516.5 109.5Q490 52 441.5 21.5Q393 -9 328 -9Q263 -9 216 24Q169 57 153 111L164 111L164 -141Q164 -163 152 -175Q140 -187 118 -187ZM307 63Q350 63 382.5 84Q415 105 433 145Q451 185 451 244Q451 332 412 378Q373 424 307 424Q263 424 230.5 403.5Q198 383 180.5 343Q163 303 163 244Q163 156 202 109.5Q241 63 307 63Z"></path><path transform="translate(32.864 14.3203) scale(0.016 -0.016)" d="M226 -9Q151 -9 112 35.5Q73 80 73 164L73 666Q73 689 85 700.5Q97 712 118 712Q140 712 152 700.5Q164 689 164 666L164 171Q164 119 185.5 93.5Q207 68 247 68Q256 68 263 68.5Q270 69 277 70Q288 71 293 64Q298 57 298 36Q298 17 289.5 6.5Q281 -4 262 -7Q253 -8 244 -8.5Q235 -9 226 -9Z"></path><path transform="translate(37.68 14.3203) scale(0.016 -0.016)" d="M228 -9Q178 -9 137.5 11Q97 31 74.5 65Q52 99 52 141Q52 195 79 226Q106 257 170 270.5Q234 284 342 284L389 284L389 226L344 226Q267 226 222.5 219Q178 212 160 194.5Q142 177 142 146Q142 107 169.5 82Q197 57 245 57Q283 57 312 75.5Q341 94 358 125.5Q375 157 375 198L375 313Q375 372 351 398.5Q327 425 270 425Q237 425 202 416Q167 407 129 388Q114 381 103 383.5Q92 386 85.5 395.5Q79 405 78.5 416.5Q78 428 83.5 439Q89 450 103 455Q147 477 190.5 486.5Q234 496 272 496Q337 496 379 475.5Q421 455 442 412.5Q463 370 463 304L463 40Q463 17 452 5Q441 -7 420 -7Q400 -7 388.5 5Q377 17 377 40L377 111L386 111Q378 74 356 47Q334 20 301.5 5.5Q269 -9 228 -9Z"></path><path transform="translate(46.128 14.3203) scale(0.016 -0.016)" d="M185 -187Q169 -187 158.5 -178.5Q148 -170 146.5 -155.5Q145 -141 152 -125L220 29L220 -9L31 431Q24 448 26 462Q28 476 39.5 485Q51 494 71 494Q88 494 98 486Q108 478 117 458L274 71L246 71L406 458Q414 478 425 486Q436 494 455 494Q472 494 481.5 485Q491 476 493 462Q495 448 487 432L235 -151Q225 -172 214.5 -179.5Q204 -187 185 -187Z"></path></g></g></a><g stroke-linecap="round" transform="translate(513 101) rotate(0 25 26.5)"><path d="M0 0 L50 0 L50 53 L0 53" stroke="none" stroke-width="0" fill="#64c375"></path><path d="M0 0 C14 0, 28 0, 50 0 M0 0 C19.07 0, 38.14 0, 50 0 M50 0 C50 19.95, 50 39.9, 50 53 M50 0 C50 16.26, 50 32.52, 50 53 M50 53 C39.33 53, 28.66 53, 0 53 M50 53 C32.88 53, 15.77 53, 0 53 M0 53 C0 42.17, 0 31.33, 0 0 M0 53 C0 34.86, 0 16.72, 0 0" stroke="transparent" stroke-width="2" fill="none"></path></g><a href="display-panel.svg"><g transform="translate(518 106) rotate(0 20 9)"><rect x="-3" y="-2.6237" width="41.742" height="21.096" style="fill: #64c375"></rect><g fill="#1e1e1e"><rect x="-2" y="-1.6237" width="39.742" height="19.096" fill="none" pointer-events="all"></rect><path transform="translate(0 12.5303) scale(0.014 -0.014)" d="M131 -7Q109 -7 97 5.5Q85 18 85 41L85 658Q85 681 97.5 693Q110 705 132 705L370 705Q484 705 545.5 649Q607 593 607 492Q607 390 545.5 334Q484 278 370 278L178 278L178 41Q178 18 166.5 5.5Q155 -7 131 -7ZM178 353L358 353Q436 353 475.5 388.5Q515 424 515 492Q515 560 475.5 594.5Q436 629 358 629L178 629Z"></path><path transform="translate(8.582 12.5303) scale(0.014 -0.014)" d="M228 -9Q178 -9 137.5 11Q97 31 74.5 65Q52 99 52 141Q52 195 79 226Q106 257 170 270.5Q234 284 342 284L389 284L389 226L344 226Q267 226 222.5 219Q178 212 160 194.5Q142 177 142 146Q142 107 169.5 82Q197 57 245 57Q283 57 312 75.5Q341 94 358 125.5Q375 157 375 198L375 313Q375 372 351 398.5Q327 425 270 425Q237 425 202 416Q167 407 129 388Q114 381 103 383.5Q92 386 85.5 395.5Q79 405 78.5 416.5Q78 428 83.5 439Q89 450 103 455Q147 477 190.5 486.5Q234 496 272 496Q337 496 379 475.5Q421 455 442 412.5Q463 370 463 304L463 40Q463 17 452 5Q441 -7 420 -7Q400 -7 388.5 5Q377 17 377 40L377 111L386 111Q378 74 356 47Q334 20 301.5 5.5Q269 -9 228 -9Z"></path><path transform="translate(16.044 12.5303) scale(0.014 -0.014)" d="M118 -7Q97 -7 85 5Q73 17 73 40L73 448Q73 471 85 482.5Q97 494 118 494Q139 494 150.5 482.5Q162 471 162 448L162 366L151 381Q172 438 219.5 467Q267 496 328 496Q387 496 425 475Q463 454 482 411Q501 368 501 302L501 40Q501 17 489.5 5Q478 -7 456 -7Q434 -7 422 5Q410 17 410 40L410 297Q410 362 385 392Q360 422 305 422Q241 422 202.5 382.5Q164 343 164 276L164 40Q164 -7 118 -7Z"></path><path transform="translate(24.052 12.5303) scale(0.014 -0.014)" d="M298 -9Q219 -9 162.5 21.5Q106 52 75 108.5Q44 165 44 242Q44 318 74.5 375Q105 432 158.5 464Q212 496 281 496Q330 496 369.5 479.5Q409 463 437 432Q465 401 479.5 356.5Q494 312 494 256Q494 240 484.5 231.5Q475 223 457 223L115 223L115 281L434 281L417 267Q417 319 401.5 355.5Q386 392 356.5 411Q327 430 283 430Q235 430 201 407.5Q167 385 149 344.5Q131 304 131 251L131 245Q131 155 174 109Q217 63 298 63Q330 63 363.5 71Q397 79 428 100Q443 109 455.5 108.5Q468 108 476 100.5Q484 93 486 82.5Q488 72 483 60Q478 48 464 39Q431 16 385.5 3.5Q340 -9 298 -9Z"></path><path transform="translate(31.528 12.5303) scale(0.014 -0.014)" d="M226 -9Q151 -9 112 35.5Q73 80 73 164L73 666Q73 689 85 700.5Q97 712 118 712Q140 712 152 700.5Q164 689 164 666L164 171Q164 119 185.5 93.5Q207 68 247 68Q256 68 263 68.5Q270 69 277 70Q288 71 293 64Q298 57 298 36Q298 17 289.5 6.5Q281 -4 262 -7Q253 -8 244 -8.5Q235 -9 226 -9Z"></path></g></g></a><g stroke-linecap="round" transform="translate(505 126) rotate(0 4 4)"><path d="M2 0 C3.02 0, 4.04 0, 6 0 C7.33 0, 8 0.67, 8 2 C8 3.53, 8 5.05, 8 6 C8 7.33, 7.33 8, 6 8 C4.67 8, 3.34 8, 2 8 C0.67 8, 0 7.33, 0 6 C0 4.89, 0 3.77, 0 2 C0 0.67, 0.67 0, 2 0" stroke="none" stroke-width="0" fill="#1e1e1e"></path><path d="M2 0 C3.3 0, 4.6 0, 6 0 M2 0 C3.02 0, 4.04 0, 6 0 M6 0 C7.33 0, 8 0.67, 8 2 M6 0 C7.33 0, 8 0.67, 8 2 M8 2 C8 3.53, 8 5.06, 8 6 M8 2 C8 3.57, 8 5.14, 8 6 M8 6 C8 7.33, 7.33 8, 6 8 M8 6 C8 7.33, 7.33 8, 6 8 M6 8 C4.88 8, 3.76 8, 2 8 M6 8 C4.5 8, 3 8, 2 8 M2 8 C0.67 8, 0 7.33, 0 6 M2 8 C0.67 8, 0 7.33, 0 6 M0 6 C0 4.47, 0 2.94, 0 2 M0 6 C0 4.67, 0 3.34, 0 2 M0 2 C0 0.67, 0.67 0, 2 0 M0 2 C0 0.67, 0.67 0, 2 0" stroke="#1e1e1e" stroke-width="1" fill="none"></path></g><g stroke-linecap="round"><g transform="translate(72 130) rotate(0 69 0)"><path d="M0 0 C43.84 0, 87.68 0, 138 0 M0 0 C50.58 0, 101.16 0, 138 0" stroke="#b1d3f1" stroke-width="2" fill="none"></path></g><g transform="translate(72 130) rotate(0 69 0)"><path d="M138 0 L124.41 6.34 L124.41 -6.34 L138 0" stroke="none" stroke-width="0" fill="#b1d3f1" fill-rule="evenodd"></path><path d="M138 0 C133.68 2.01, 129.36 4.03, 124.41 6.34 M138 0 C133.02 2.32, 128.03 4.65, 124.41 6.34 M124.41 6.34 C124.41 2.8, 124.41 -0.74, 124.41 -6.34 M124.41 6.34 C124.41 1.59, 124.41 -3.17, 124.41 -6.34 M124.41 -6.34 C128.74 -4.32, 133.08 -2.29, 138 0 M124.41 -6.34 C129.77 -3.84, 135.13 -1.34, 138 0 M138 0 C138 0, 138 0, 138 0 M138 0 C138 0, 138 0, 138 0" stroke="#b1d3f1" stroke-width="2" fill="none"></path></g></g><mask></mask><g transform="translate(139.015625 122.5) rotate(0 25.484375 7)"><rect x="-3" y="-2.1598" width="56.97" height="15.64" style="fill: #6babe4"></rect><g fill="transparent"><path transform="translate(0 8.9502) scale(0.01 -0.01)" d="M395 -9Q290 -9 215 35Q140 79 99.5 160.5Q59 242 59 353Q59 436 82 502.5Q105 569 148 616.5Q191 664 253.5 689Q316 714 395 714Q455 714 510.5 697Q566 680 606 649Q622 638 627 624Q632 610 628.5 597.5Q625 585 615.5 576.5Q606 568 592 567.5Q578 567 562 578Q527 605 485.5 617.5Q444 630 397 630Q320 630 266.5 597.5Q213 565 185.5 503.5Q158 442 158 353Q158 265 185.5 202.5Q213 140 266.5 107.5Q320 75 397 75Q444 75 486.5 88Q529 101 565 128Q581 139 594.5 138Q608 137 617 129.5Q626 122 629.5 109.5Q633 97 629 84Q625 71 611 61Q570 26 513.5 8.5Q457 -9 395 -9Z"></path><path transform="translate(6.4 8.9502) scale(0.01 -0.01)" d="M280 -9Q208 -9 155 22Q102 53 73 110Q44 167 44 244Q44 302 60.5 348.5Q77 395 108 428Q139 461 182.5 478.5Q226 496 280 496Q352 496 405 465Q458 434 487 377.5Q516 321 516 244Q516 186 499.5 139Q483 92 452 59Q421 26 377.5 8.5Q334 -9 280 -9ZM280 63Q324 63 356.5 84Q389 105 406.5 145Q424 185 424 244Q424 332 385 378Q346 424 280 424Q237 424 204.5 403.5Q172 383 154 343Q136 303 136 244Q136 156 175.5 109.5Q215 63 280 63Z"></path><path transform="translate(12 8.9502) scale(0.01 -0.01)" d="M120 -7Q99 -7 87 5Q75 17 75 40L75 448Q75 471 87 482.5Q99 494 120 494Q141 494 152.5 482.5Q164 471 164 448L164 363L153 381Q172 436 214.5 466Q257 496 316 496Q378 496 416 466.5Q454 437 467 377L453 377Q471 432 517.5 464Q564 496 626 496Q681 496 716.5 474.5Q752 453 770 410.5Q788 368 788 302L788 40Q788 17 776 5Q764 -7 743 -7Q721 -7 709 5Q697 17 697 40L697 298Q697 362 675 392Q653 422 601 422Q544 422 510.5 382.5Q477 343 477 274L477 40Q477 17 465.5 5Q454 -7 432 -7Q410 -7 398 5Q386 17 386 40L386 298Q386 362 364 392Q342 422 290 422Q233 422 199.5 382.5Q166 343 166 274L166 40Q166 -7 120 -7Z"></path><path transform="translate(20.61 8.9502) scale(0.01 -0.01)" d="M120 -7Q99 -7 87 5Q75 17 75 40L75 448Q75 471 87 482.5Q99 494 120 494Q141 494 152.5 482.5Q164 471 164 448L164 363L153 381Q172 436 214.5 466Q257 496 316 496Q378 496 416 466.5Q454 437 467 377L453 377Q471 432 517.5 464Q564 496 626 496Q681 496 716.5 474.5Q752 453 770 410.5Q788 368 788 302L788 40Q788 17 776 5Q764 -7 743 -7Q721 -7 709 5Q697 17 697 40L697 298Q697 362 675 392Q653 422 601 422Q544 422 510.5 382.5Q477 343 477 274L477 40Q477 17 465.5 5Q454 -7 432 -7Q410 -7 398 5Q386 17 386 40L386 298Q386 362 364 392Q342 422 290 422Q233 422 199.5 382.5Q166 343 166 274L166 40Q166 -7 120 -7Z"></path><path transform="translate(29.22 8.9502) scale(0.01 -0.01)" d="M228 -9Q178 -9 137.5 11Q97 31 74.5 65Q52 99 52 141Q52 195 79 226Q106 257 170 270.5Q234 284 342 284L389 284L389 226L344 226Q267 226 222.5 219Q178 212 160 194.5Q142 177 142 146Q142 107 169.5 82Q197 57 245 57Q283 57 312 75.5Q341 94 358 125.5Q375 157 375 198L375 313Q375 372 351 398.5Q327 425 270 425Q237 425 202 416Q167 407 129 388Q114 381 103 383.5Q92 386 85.5 395.5Q79 405 78.5 416.5Q78 428 83.5 439Q89 450 103 455Q147 477 190.5 486.5Q234 496 272 496Q337 496 379 475.5Q421 455 442 412.5Q463 370 463 304L463 40Q463 17 452 5Q441 -7 420 -7Q400 -7 388.5 5Q377 17 377 40L377 111L386 111Q378 74 356 47Q334 20 301.5 5.5Q269 -9 228 -9Z"></path><path transform="translate(34.55 8.9502) scale(0.01 -0.01)" d="M118 -7Q97 -7 85 5Q73 17 73 40L73 448Q73 471 85 482.5Q97 494 118 494Q139 494 150.5 482.5Q162 471 162 448L162 366L151 381Q172 438 219.5 467Q267 496 328 496Q387 496 425 475Q463 454 482 411Q501 368 501 302L501 40Q501 17 489.5 5Q478 -7 456 -7Q434 -7 422 5Q410 17 410 40L410 297Q410 362 385 392Q360 422 305 422Q241 422 202.5 382.5Q164 343 164 276L164 40Q164 -7 118 -7Z"></path><path transform="translate(40.27 8.9502) scale(0.01 -0.01)" d="M259 -9Q195 -9 146.5 21.5Q98 52 71 109.5Q44 167 44 244Q44 322 70.5 378.5Q97 435 145.5 465.5Q194 496 259 496Q324 496 371 463.5Q418 431 434 377L423 377L423 666Q423 689 434.5 700.5Q446 712 468 712Q490 712 502 700.5Q514 689 514 666L514 40Q514 17 502 5Q490 -7 468 -7Q447 -7 435 5Q423 17 423 40L423 131L434 113Q419 57 371.5 24Q324 -9 259 -9ZM280 63Q324 63 356.5 84Q389 105 406.5 145Q424 185 424 244Q424 332 385 378Q346 424 280 424Q237 424 204.5 403.5Q172 383 154 343Q136 303 136 244Q136 156 175.5 109.5Q215 63 280 63Z"></path><path transform="translate(46.14 8.9502) scale(0.01 -0.01)" d="M241 -9Q196 -9 150.5 1.5Q105 12 65 38Q54 45 49.5 55.5Q45 66 46.5 76.5Q48 87 55 95Q62 103 72.5 104.5Q83 106 95 99Q134 77 170.5 68Q207 59 243 59Q298 59 326 79Q354 99 354 132Q354 160 335.5 175.5Q317 191 278 199L185 218Q123 232 91.5 264.5Q60 297 60 348Q60 393 84.5 426.5Q109 460 153 478Q197 496 254 496Q298 496 337.5 484.5Q377 473 409 450Q421 443 424.5 432.5Q428 422 425.5 411.5Q423 401 416 394Q409 387 398 385.5Q387 384 374 391Q345 411 314.5 419.5Q284 428 254 428Q200 428 172.5 407Q145 386 145 352Q145 326 161.5 309Q178 292 214 284L307 265Q372 251 405 220.5Q438 190 438 138Q438 70 384.5 30.5Q331 -9 241 -9Z"></path></g></g><a href="controller-mcu-app-eth0_ctrl-commands-telemetry_uplink.svg"><g transform="translate(139.015625 122.5) rotate(0 25.484375 7)"><g fill="#b1d3f1"><rect x="-2" y="-1.1598" width="54.97" height="13.64" fill="none" pointer-events="all"></rect><path transform="translate(0 8.9502) scale(0.01 -0.01)" d="M395 -9Q290 -9 215 35Q140 79 99.5 160.5Q59 242 59 353Q59 436 82 502.5Q105 569 148 616.5Q191 664 253.5 689Q316 714 395 714Q455 714 510.5 697Q566 680 606 649Q622 638 627 624Q632 610 628.5 597.5Q625 585 615.5 576.5Q606 568 592 567.5Q578 567 562 578Q527 605 485.5 617.5Q444 630 397 630Q320 630 266.5 597.5Q213 565 185.5 503.5Q158 442 158 353Q158 265 185.5 202.5Q213 140 266.5 107.5Q320 75 397 75Q444 75 486.5 88Q529 101 565 128Q581 139 594.5 138Q608 137 617 129.5Q626 122 629.5 109.5Q633 97 629 84Q625 71 611 61Q570 26 513.5 8.5Q457 -9 395 -9Z"></path><path transform="translate(6.4 8.9502) scale(0.01 -0.01)" d="M280 -9Q208 -9 155 22Q102 53 73 110Q44 167 44 244Q44 302 60.5 348.5Q77 395 108 428Q139 461 182.5 478.5Q226 496 280 496Q352 496 405 465Q458 434 487 377.5Q516 321 516 244Q516 186 499.5 139Q483 92 452 59Q421 26 377.5 8.5Q334 -9 280 -9ZM280 63Q324 63 356.5 84Q389 105 406.5 145Q424 185 424 244Q424 332 385 378Q346 424 280 424Q237 424 204.5 403.5Q172 383 154 343Q136 303 136 244Q136 156 175.5 109.5Q215 63 280 63Z"></path><path transform="translate(12 8.9502) scale(0.01 -0.01)" d="M120 -7Q99 -7 87 5Q75 17 75 40L75 448Q75 471 87 482.5Q99 494 120 494Q141 494 152.5 482.5Q164 471 164 448L164 363L153 381Q172 436 214.5 466Q257 496 316 496Q378 496 416 466.5Q454 437 467 377L453 377Q471 432 517.5 464Q564 496 626 496Q681 496 716.5 474.5Q752 453 770 410.5Q788 368 788 302L788 40Q788 17 776 5Q764 -7 743 -7Q721 -7 709 5Q697 17 697 40L697 298Q697 362 675 392Q653 422 601 422Q544 422 510.5 382.5Q477 343 477 274L477 40Q477 17 465.5 5Q454 -7 432 -7Q410 -7 398 5Q386 17 386 40L386 298Q386 362 364 392Q342 422 290 422Q233 422 199.5 382.5Q166 343 166 274L166 40Q166 -7 120 -7Z"></path><path transform="translate(20.61 8.9502) scale(0.01 -0.01)" d="M120 -7Q99 -7 87 5Q75 17 75 40L75 448Q75 471 87 482.5Q99 494 120 494Q141 494 152.5 482.5Q164 471 164 448L164 363L153 381Q172 436 214.5 466Q257 496 316 496Q378 496 416 466.5Q454 437 467 377L453 377Q471 432 517.5 464Q564 496 626 496Q681 496 716.5 474.5Q752 453 770 410.5Q788 368 788 302L788 40Q788 17 776 5Q764 -7 743 -7Q721 -7 709 5Q697 17 697 40L697 298Q697 362 675 392Q653 422 601 422Q544 422 510.5 382.5Q477 343 477 274L477 40Q477 17 465.5 5Q454 -7 432 -7Q410 -7 398 5Q386 17 386 40L386 298Q386 362 364 392Q342 422 290 422Q233 422 199.5 382.5Q166 343 166 274L166 40Q166 -7 120 -7Z"></path><path transform="translate(29.22 8.9502) scale(0.01 -0.01)" d="M228 -9Q178 -9 137.5 11Q97 31 74.5 65Q52 99 52 141Q52 195 79 226Q106 257 170 270.5Q234 284 342 284L389 284L389 226L344 226Q267 226 222.5 219Q178 212 160 194.5Q142 177 142 146Q142 107 169.5 82Q197 57 245 57Q283 57 312 75.5Q341 94 358 125.5Q375 157 375 198L375 313Q375 372 351 398.5Q327 425 270 425Q237 425 202 416Q167 407 129 388Q114 381 103 383.5Q92 386 85.5 395.5Q79 405 78.5 416.5Q78 428 83.5 439Q89 450 103 455Q147 477 190.5 486.5Q234 496 272 496Q337 496 379 475.5Q421 455 442 412.5Q463 370 463 304L463 40Q463 17 452 5Q441 -7 420 -7Q400 -7 388.5 5Q377 17 377 40L377 111L386 111Q378 74 356 47Q334 20 301.5 5.5Q269 -9 228 -9Z"></path><path transform="translate(34.55 8.9502) scale(0.01 -0.01)" d="M118 -7Q97 -7 85 5Q73 17 73 40L73 448Q73 471 85 482.5Q97 494 118 494Q139 494 150.5 482.5Q162 471 162 448L162 366L151 381Q172 438 219.5 467Q267 496 328 496Q387 496 425 475Q463 454 482 411Q501 368 501 302L501 40Q501 17 489.5 5Q478 -7 456 -7Q434 -7 422 5Q410 17 410 40L410 297Q410 362 385 392Q360 422 305 422Q241 422 202.5 382.5Q164 343 164 276L164 40Q164 -7 118 -7Z"></path><path transform="translate(40.27 8.9502) scale(0.01 -0.01)" d="M259 -9Q195 -9 146.5 21.5Q98 52 71 109.5Q44 167 44 244Q44 322 70.5 378.5Q97 435 145.5 465.5Q194 496 259 496Q324 496 371 463.5Q418 431 434 377L423 377L423 666Q423 689 434.5 700.5Q446 712 468 712Q490 712 502 700.5Q514 689 514 666L514 40Q514 17 502 5Q490 -7 468 -7Q447 -7 435 5Q423 17 423 40L423 131L434 113Q419 57 371.5 24Q324 -9 259 -9ZM280 63Q324 63 356.5 84Q389 105 406.5 145Q424 185 424 244Q424 332 385 378Q346 424 280 424Q237 424 204.5 403.5Q172 383 154 343Q136 303 136 244Q136 156 175.5 109.5Q215 63 280 63Z"></path><path transform="translate(46.14 8.9502) scale(0.01 -0.01)" d="M241 -9Q196 -9 150.5 1.5Q105 12 65 38Q54 45 49.5 55.5Q45 66 46.5 76.5Q48 87 55 95Q62 103 72.5 104.5Q83 106 95 99Q134 77 170.5 68Q207 59 243 59Q298 59 326 79Q354 99 354 132Q354 160 335.5 175.5Q317 191 278 199L185 218Q123 232 91.5 264.5Q60 297 60 348Q60 393 84.5 426.5Q109 460 153 478Q197 496 254 496Q298 496 337.5 484.5Q377 473 409 450Q421 443 424.5 432.5Q428 422 425.5 411.5Q423 401 416 394Q409 387 398 385.5Q387 384 374 391Q345 411 314.5 419.5Q284 428 254 428Q200 428 172.5 407Q145 386 145 352Q145 326 161.5 309Q178 292 214 284L307 265Q372 251 405 220.5Q438 190 438 138Q438 70 384.5 30.5Q331 -9 241 -9Z"></path></g></g></a><g stroke-linecap="round"><g transform="translate(210 130) rotate(0 149.5 0)"><path d="M0 0 C105.44 0, 210.87 0, 299 0 M0 0 C105.82 0, 211.63 0, 299 0" stroke="#1e1e1e" stroke-width="2" fill="none"></path></g><g transform="translate(210 130) rotate(0 149.5 0)"><path d="M0 0 L13.59 -6.34 L13.59 6.34 L0 0" stroke="none" stroke-width="0" fill="#1e1e1e" fill-rule="evenodd"></path><path d="M0 0 C4.79 -2.24, 9.59 -4.47, 13.59 -6.34 M0 0 C4.81 -2.24, 9.62 -4.49, 13.59 -6.34 M13.59 -6.34 C13.59 -2.79, 13.59 0.76, 13.59 6.34 M13.59 -6.34 C13.59 -1.8, 13.59 2.74, 13.59 6.34 M13.59 6.34 C10.54 4.92, 7.49 3.49, 0 0 M13.59 6.34 C9.99 4.66, 6.38 2.98, 0 0 M0 0 C0 0, 0 0, 0 0 M0 0 C0 0, 0 0, 0 0" stroke="#1e1e1e" stroke-width="2" fill="none"></path></g><g transform="translate(210 130) rotate(0 149.5 0)"><path d="M299 0 L285.41 6.34 L285.41 -6.34 L299 0" stroke="none" stroke-width="0" fill="#1e1e1e" fill-rule="evenodd"></path><path d="M299 0 C294.21 2.24, 289.41 4.47, 285.41 6.34 M299 0 C294.19 2.24, 289.38 4.49, 285.41 6.34 M285.41 6.34 C285.41 2.79, 285.41 -0.76, 285.41 -6.34 M285.41 6.34 C285.41 1.8, 285.41 -2.74, 285.41 -6.34 M285.41 -6.34 C288.46 -4.92, 291.51 -3.49, 299 0 M285.41 -6.34 C289.01 -4.66, 292.62 -2.98, 299 0 M299 0 C299 0, 299 0, 299 0 M299 0 C299 0, 299 0, 299 0" stroke="#1e1e1e" stroke-width="2" fill="none"></path></g></g><mask></mask><g transform="translate(334.015625 122.5) rotate(0 25.484375 7)"><rect x="-3" y="-2.1598" width="56.97" height="15.64" style="fill: var(--diagram-halo, #ffffff)"></rect><g fill="transparent"><path transform="translate(0 8.9502) scale(0.01 -0.01)" d="M395 -9Q290 -9 215 35Q140 79 99.5 160.5Q59 242 59 353Q59 436 82 502.5Q105 569 148 616.5Q191 664 253.5 689Q316 714 395 714Q455 714 510.5 697Q566 680 606 649Q622 638 627 624Q632 610 628.5 597.5Q625 585 615.5 576.5Q606 568 592 567.5Q578 567 562 578Q527 605 485.5 617.5Q444 630 397 630Q320 630 266.5 597.5Q213 565 185.5 503.5Q158 442 158 353Q158 265 185.5 202.5Q213 140 266.5 107.5Q320 75 397 75Q444 75 486.5 88Q529 101 565 128Q581 139 594.5 138Q608 137 617 129.5Q626 122 629.5 109.5Q633 97 629 84Q625 71 611 61Q570 26 513.5 8.5Q457 -9 395 -9Z"></path><path transform="translate(6.4 8.9502) scale(0.01 -0.01)" d="M280 -9Q208 -9 155 22Q102 53 73 110Q44 167 44 244Q44 302 60.5 348.5Q77 395 108 428Q139 461 182.5 478.5Q226 496 280 496Q352 496 405 465Q458 434 487 377.5Q516 321 516 244Q516 186 499.5 139Q483 92 452 59Q421 26 377.5 8.5Q334 -9 280 -9ZM280 63Q324 63 356.5 84Q389 105 406.5 145Q424 185 424 244Q424 332 385 378Q346 424 280 424Q237 424 204.5 403.5Q172 383 154 343Q136 303 136 244Q136 156 175.5 109.5Q215 63 280 63Z"></path><path transform="translate(12 8.9502) scale(0.01 -0.01)" d="M120 -7Q99 -7 87 5Q75 17 75 40L75 448Q75 471 87 482.5Q99 494 120 494Q141 494 152.5 482.5Q164 471 164 448L164 363L153 381Q172 436 214.5 466Q257 496 316 496Q378 496 416 466.5Q454 437 467 377L453 377Q471 432 517.5 464Q564 496 626 496Q681 496 716.5 474.5Q752 453 770 410.5Q788 368 788 302L788 40Q788 17 776 5Q764 -7 743 -7Q721 -7 709 5Q697 17 697 40L697 298Q697 362 675 392Q653 422 601 422Q544 422 510.5 382.5Q477 343 477 274L477 40Q477 17 465.5 5Q454 -7 432 -7Q410 -7 398 5Q386 17 386 40L386 298Q386 362 364 392Q342 422 290 422Q233 422 199.5 382.5Q166 343 166 274L166 40Q166 -7 120 -7Z"></path><path transform="translate(20.61 8.9502) scale(0.01 -0.01)" d="M120 -7Q99 -7 87 5Q75 17 75 40L75 448Q75 471 87 482.5Q99 494 120 494Q141 494 152.5 482.5Q164 471 164 448L164 363L153 381Q172 436 214.5 466Q257 496 316 496Q378 496 416 466.5Q454 437 467 377L453 377Q471 432 517.5 464Q564 496 626 496Q681 496 716.5 474.5Q752 453 770 410.5Q788 368 788 302L788 40Q788 17 776 5Q764 -7 743 -7Q721 -7 709 5Q697 17 697 40L697 298Q697 362 675 392Q653 422 601 422Q544 422 510.5 382.5Q477 343 477 274L477 40Q477 17 465.5 5Q454 -7 432 -7Q410 -7 398 5Q386 17 386 40L386 298Q386 362 364 392Q342 422 290 422Q233 422 199.5 382.5Q166 343 166 274L166 40Q166 -7 120 -7Z"></path><path transform="translate(29.22 8.9502) scale(0.01 -0.01)" d="M228 -9Q178 -9 137.5 11Q97 31 74.5 65Q52 99 52 141Q52 195 79 226Q106 257 170 270.5Q234 284 342 284L389 284L389 226L344 226Q267 226 222.5 219Q178 212 160 194.5Q142 177 142 146Q142 107 169.5 82Q197 57 245 57Q283 57 312 75.5Q341 94 358 125.5Q375 157 375 198L375 313Q375 372 351 398.5Q327 425 270 425Q237 425 202 416Q167 407 129 388Q114 381 103 383.5Q92 386 85.5 395.5Q79 405 78.5 416.5Q78 428 83.5 439Q89 450 103 455Q147 477 190.5 486.5Q234 496 272 496Q337 496 379 475.5Q421 455 442 412.5Q463 370 463 304L463 40Q463 17 452 5Q441 -7 420 -7Q400 -7 388.5 5Q377 17 377 40L377 111L386 111Q378 74 356 47Q334 20 301.5 5.5Q269 -9 228 -9Z"></path><path transform="translate(34.55 8.9502) scale(0.01 -0.01)" d="M118 -7Q97 -7 85 5Q73 17 73 40L73 448Q73 471 85 482.5Q97 494 118 494Q139 494 150.5 482.5Q162 471 162 448L162 366L151 381Q172 438 219.5 467Q267 496 328 496Q387 496 425 475Q463 454 482 411Q501 368 501 302L501 40Q501 17 489.5 5Q478 -7 456 -7Q434 -7 422 5Q410 17 410 40L410 297Q410 362 385 392Q360 422 305 422Q241 422 202.5 382.5Q164 343 164 276L164 40Q164 -7 118 -7Z"></path><path transform="translate(40.27 8.9502) scale(0.01 -0.01)" d="M259 -9Q195 -9 146.5 21.5Q98 52 71 109.5Q44 167 44 244Q44 322 70.5 378.5Q97 435 145.5 465.5Q194 496 259 496Q324 496 371 463.5Q418 431 434 377L423 377L423 666Q423 689 434.5 700.5Q446 712 468 712Q490 712 502 700.5Q514 689 514 666L514 40Q514 17 502 5Q490 -7 468 -7Q447 -7 435 5Q423 17 423 40L423 131L434 113Q419 57 371.5 24Q324 -9 259 -9ZM280 63Q324 63 356.5 84Q389 105 406.5 145Q424 185 424 244Q424 332 385 378Q346 424 280 424Q237 424 204.5 403.5Q172 383 154 343Q136 303 136 244Q136 156 175.5 109.5Q215 63 280 63Z"></path><path transform="translate(46.14 8.9502) scale(0.01 -0.01)" d="M241 -9Q196 -9 150.5 1.5Q105 12 65 38Q54 45 49.5 55.5Q45 66 46.5 76.5Q48 87 55 95Q62 103 72.5 104.5Q83 106 95 99Q134 77 170.5 68Q207 59 243 59Q298 59 326 79Q354 99 354 132Q354 160 335.5 175.5Q317 191 278 199L185 218Q123 232 91.5 264.5Q60 297 60 348Q60 393 84.5 426.5Q109 460 153 478Q197 496 254 496Q298 496 337.5 484.5Q377 473 409 450Q421 443 424.5 432.5Q428 422 425.5 411.5Q423 401 416 394Q409 387 398 385.5Q387 384 374 391Q345 411 314.5 419.5Q284 428 254 428Q200 428 172.5 407Q145 386 145 352Q145 326 161.5 309Q178 292 214 284L307 265Q372 251 405 220.5Q438 190 438 138Q438 70 384.5 30.5Q331 -9 241 -9Z"></path></g></g><a href="multiflow-commands-17ae9f496d.svg"><g transform="translate(334.015625 122.5) rotate(0 25.484375 7)"><g fill="#1e1e1e"><rect x="-2" y="-1.1598" width="54.97" height="13.64" fill="none" pointer-events="all"></rect><path transform="translate(0 8.9502) scale(0.01 -0.01)" d="M395 -9Q290 -9 215 35Q140 79 99.5 160.5Q59 242 59 353Q59 436 82 502.5Q105 569 148 616.5Q191 664 253.5 689Q316 714 395 714Q455 714 510.5 697Q566 680 606 649Q622 638 627 624Q632 610 628.5 597.5Q625 585 615.5 576.5Q606 568 592 567.5Q578 567 562 578Q527 605 485.5 617.5Q444 630 397 630Q320 630 266.5 597.5Q213 565 185.5 503.5Q158 442 158 353Q158 265 185.5 202.5Q213 140 266.5 107.5Q320 75 397 75Q444 75 486.5 88Q529 101 565 128Q581 139 594.5 138Q608 137 617 129.5Q626 122 629.5 109.5Q633 97 629 84Q625 71 611 61Q570 26 513.5 8.5Q457 -9 395 -9Z"></path><path transform="translate(6.4 8.9502) scale(0.01 -0.01)" d="M280 -9Q208 -9 155 22Q102 53 73 110Q44 167 44 244Q44 302 60.5 348.5Q77 395 108 428Q139 461 182.5 478.5Q226 496 280 496Q352 496 405 465Q458 434 487 377.5Q516 321 516 244Q516 186 499.5 139Q483 92 452 59Q421 26 377.5 8.5Q334 -9 280 -9ZM280 63Q324 63 356.5 84Q389 105 406.5 145Q424 185 424 244Q424 332 385 378Q346 424 280 424Q237 424 204.5 403.5Q172 383 154 343Q136 303 136 244Q136 156 175.5 109.5Q215 63 280 63Z"></path><path transform="translate(12 8.9502) scale(0.01 -0.01)" d="M120 -7Q99 -7 87 5Q75 17 75 40L75 448Q75 471 87 482.5Q99 494 120 494Q141 494 152.5 482.5Q164 471 164 448L164 363L153 381Q172 436 214.5 466Q257 496 316 496Q378 496 416 466.5Q454 437 467 377L453 377Q471 432 517.5 464Q564 496 626 496Q681 496 716.5 474.5Q752 453 770 410.5Q788 368 788 302L788 40Q788 17 776 5Q764 -7 743 -7Q721 -7 709 5Q697 17 697 40L697 298Q697 362 675 392Q653 422 601 422Q544 422 510.5 382.5Q477 343 477 274L477 40Q477 17 465.5 5Q454 -7 432 -7Q410 -7 398 5Q386 17 386 40L386 298Q386 362 364 392Q342 422 290 422Q233 422 199.5 382.5Q166 343 166 274L166 40Q166 -7 120 -7Z"></path><path transform="translate(20.61 8.9502) scale(0.01 -0.01)" d="M120 -7Q99 -7 87 5Q75 17 75 40L75 448Q75 471 87 482.5Q99 494 120 494Q141 494 152.5 482.5Q164 471 164 448L164 363L153 381Q172 436 214.5 466Q257 496 316 496Q378 496 416 466.5Q454 437 467 377L453 377Q471 432 517.5 464Q564 496 626 496Q681 496 716.5 474.5Q752 453 770 410.5Q788 368 788 302L788 40Q788 17 776 5Q764 -7 743 -7Q721 -7 709 5Q697 17 697 40L697 298Q697 362 675 392Q653 422 601 422Q544 422 510.5 382.5Q477 343 477 274L477 40Q477 17 465.5 5Q454 -7 432 -7Q410 -7 398 5Q386 17 386 40L386 298Q386 362 364 392Q342 422 290 422Q233 422 199.5 382.5Q166 343 166 274L166 40Q166 -7 120 -7Z"></path><path transform="translate(29.22 8.9502) scale(0.01 -0.01)" d="M228 -9Q178 -9 137.5 11Q97 31 74.5 65Q52 99 52 141Q52 195 79 226Q106 257 170 270.5Q234 284 342 284L389 284L389 226L344 226Q267 226 222.5 219Q178 212 160 194.5Q142 177 142 146Q142 107 169.5 82Q197 57 245 57Q283 57 312 75.5Q341 94 358 125.5Q375 157 375 198L375 313Q375 372 351 398.5Q327 425 270 425Q237 425 202 416Q167 407 129 388Q114 381 103 383.5Q92 386 85.5 395.5Q79 405 78.5 416.5Q78 428 83.5 439Q89 450 103 455Q147 477 190.5 486.5Q234 496 272 496Q337 496 379 475.5Q421 455 442 412.5Q463 370 463 304L463 40Q463 17 452 5Q441 -7 420 -7Q400 -7 388.5 5Q377 17 377 40L377 111L386 111Q378 74 356 47Q334 20 301.5 5.5Q269 -9 228 -9Z"></path><path transform="translate(34.55 8.9502) scale(0.01 -0.01)" d="M118 -7Q97 -7 85 5Q73 17 73 40L73 448Q73 471 85 482.5Q97 494 118 494Q139 494 150.5 482.5Q162 471 162 448L162 366L151 381Q172 438 219.5 467Q267 496 328 496Q387 496 425 475Q463 454 482 411Q501 368 501 302L501 40Q501 17 489.5 5Q478 -7 456 -7Q434 -7 422 5Q410 17 410 40L410 297Q410 362 385 392Q360 422 305 422Q241 422 202.5 382.5Q164 343 164 276L164 40Q164 -7 118 -7Z"></path><path transform="translate(40.27 8.9502) scale(0.01 -0.01)" d="M259 -9Q195 -9 146.5 21.5Q98 52 71 109.5Q44 167 44 244Q44 322 70.5 378.5Q97 435 145.5 465.5Q194 496 259 496Q324 496 371 463.5Q418 431 434 377L423 377L423 666Q423 689 434.5 700.5Q446 712 468 712Q490 712 502 700.5Q514 689 514 666L514 40Q514 17 502 5Q490 -7 468 -7Q447 -7 435 5Q423 17 423 40L423 131L434 113Q419 57 371.5 24Q324 -9 259 -9ZM280 63Q324 63 356.5 84Q389 105 406.5 145Q424 185 424 244Q424 332 385 378Q346 424 280 424Q237 424 204.5 403.5Q172 383 154 343Q136 303 136 244Q136 156 175.5 109.5Q215 63 280 63Z"></path><path transform="translate(46.14 8.9502) scale(0.01 -0.01)" d="M241 -9Q196 -9 150.5 1.5Q105 12 65 38Q54 45 49.5 55.5Q45 66 46.5 76.5Q48 87 55 95Q62 103 72.5 104.5Q83 106 95 99Q134 77 170.5 68Q207 59 243 59Q298 59 326 79Q354 99 354 132Q354 160 335.5 175.5Q317 191 278 199L185 218Q123 232 91.5 264.5Q60 297 60 348Q60 393 84.5 426.5Q109 460 153 478Q197 496 254 496Q298 496 337.5 484.5Q377 473 409 450Q421 443 424.5 432.5Q428 422 425.5 411.5Q423 401 416 394Q409 387 398 385.5Q387 384 374 391Q345 411 314.5 419.5Q284 428 254 428Q200 428 172.5 407Q145 386 145 352Q145 326 161.5 309Q178 292 214 284L307 265Q372 251 405 220.5Q438 190 438 138Q438 70 384.5 30.5Q331 -9 241 -9Z"></path></g></g></a><a href="controller.md#MCU > eth0:10.0.0.1/24"><g transform="translate(219 139) rotate(0 43 7)"><rect x="-3" y="-2.1598" width="80.93" height="15.64" style="fill: var(--diagram-halo, #ffffff)"></rect><g fill="#1e1e1e"><rect x="-2" y="-1.1598" width="78.93" height="13.64" fill="none" pointer-events="all"></rect><path transform="translate(0 8.9502) scale(0.01 -0.01)" d="M298 -9Q219 -9 162.5 21.5Q106 52 75 108.5Q44 165 44 242Q44 318 74.5 375Q105 432 158.5 464Q212 496 281 496Q330 496 369.5 479.5Q409 463 437 432Q465 401 479.5 356.5Q494 312 494 256Q494 240 484.5 231.5Q475 223 457 223L115 223L115 281L434 281L417 267Q417 319 401.5 355.5Q386 392 356.5 411Q327 430 283 430Q235 430 201 407.5Q167 385 149 344.5Q131 304 131 251L131 245Q131 155 174 109Q217 63 298 63Q330 63 363.5 71Q397 79 428 100Q443 109 455.5 108.5Q468 108 476 100.5Q484 93 486 82.5Q488 72 483 60Q478 48 464 39Q431 16 385.5 3.5Q340 -9 298 -9Z"></path><path transform="translate(5.33 8.9502) scale(0.01 -0.01)" d="M275 -9Q216 -9 176.5 12Q137 33 117.5 73Q98 113 98 171L98 417L34 417Q16 417 6 426.5Q-4 436 -4 452Q-4 469 6 478Q16 487 34 487L98 487L98 596Q98 619 110 630.5Q122 642 144 642Q166 642 177.5 630.5Q189 619 189 596L189 487L310 487Q329 487 339 478Q349 469 349 452Q349 436 339 426.5Q329 417 310 417L189 417L189 179Q189 124 212 96Q235 68 288 68Q307 68 320 71.5Q333 75 343 75Q352 76 358.5 69Q365 62 365 43Q365 29 360.5 17.5Q356 6 343 2Q331 -2 311 -5.5Q291 -9 275 -9Z"></path><path transform="translate(8.99 8.9502) scale(0.01 -0.01)" d="M118 -7Q97 -7 85 5Q73 17 73 40L73 666Q73 689 85 700.5Q97 712 118 712Q140 712 152 700.5Q164 689 164 666L164 381L151 381Q172 438 219.5 467Q267 496 328 496Q387 496 425 474.5Q463 453 482 410Q501 367 501 302L501 40Q501 17 489.5 5Q478 -7 456 -7Q434 -7 422 5Q410 17 410 40L410 297Q410 362 385 392Q360 422 305 422Q241 422 202.5 382.5Q164 343 164 276L164 40Q164 -7 118 -7Z"></path><path transform="translate(14.71 8.9502) scale(0.01 -0.01)" d="M300 -9Q178 -9 114.5 84.5Q51 178 51 353Q51 472 79.5 552Q108 632 163.5 673Q219 714 300 714Q423 714 486 622.5Q549 531 549 354Q549 237 520.5 156Q492 75 437 33Q382 -9 300 -9ZM300 70Q380 70 419 139Q458 208 458 354Q458 500 419.5 567.5Q381 635 300 635Q220 635 181 567.5Q142 500 142 354Q142 208 181 139Q220 70 300 70Z"></path><path transform="translate(20.71 8.9502) scale(0.01 -0.01)" d="M117 -4Q91 -4 74 13Q57 30 57 56Q57 82 74 98Q91 114 117 114Q145 114 160.5 98Q176 82 176 56Q176 30 160.5 13Q145 -4 117 -4ZM117 373Q91 373 74 389.5Q57 406 57 432Q57 458 74 474.5Q91 491 117 491Q145 491 160.5 474.5Q176 458 176 432Q176 406 160.5 389.5Q145 373 117 373Z"></path><path transform="translate(23.04 8.9502) scale(0.01 -0.01)" d="M155 0Q136 0 125 11Q114 22 114 40Q114 59 125 69Q136 79 155 79L281 79L281 628L329 628L183 534Q169 525 156.5 526.5Q144 528 135 536.5Q126 545 123 557Q120 569 124.5 581.5Q129 594 144 602L282 692Q297 701 310.5 706.5Q324 712 337 712Q352 712 363 703Q374 694 374 674L374 79L490 79Q510 79 520.5 69Q531 59 531 40Q531 21 520.5 10.5Q510 0 490 0Z"></path><path transform="translate(29.04 8.9502) scale(0.01 -0.01)" d="M300 -9Q178 -9 114.5 84.5Q51 178 51 353Q51 472 79.5 552Q108 632 163.5 673Q219 714 300 714Q423 714 486 622.5Q549 531 549 354Q549 237 520.5 156Q492 75 437 33Q382 -9 300 -9ZM300 70Q380 70 419 139Q458 208 458 354Q458 500 419.5 567.5Q381 635 300 635Q220 635 181 567.5Q142 500 142 354Q142 208 181 139Q220 70 300 70Z"></path><path transform="translate(35.04 8.9502) scale(0.01 -0.01)" d="M117 -4Q91 -4 74 13Q57 30 57 56Q57 82 74 98Q91 114 117 114Q145 114 160.5 98Q176 82 176 56Q176 30 160.5 13Q145 -4 117 -4Z"></path><path transform="translate(37.37 8.9502) scale(0.01 -0.01)" d="M300 -9Q178 -9 114.5 84.5Q51 178 51 353Q51 472 79.5 552Q108 632 163.5 673Q219 714 300 714Q423 714 486 622.5Q549 531 549 354Q549 237 520.5 156Q492 75 437 33Q382 -9 300 -9ZM300 70Q380 70 419 139Q458 208 458 354Q458 500 419.5 567.5Q381 635 300 635Q220 635 181 567.5Q142 500 142 354Q142 208 181 139Q220 70 300 70Z"></path><path transform="translate(43.37 8.9502) scale(0.01 -0.01)" d="M117 -4Q91 -4 74 13Q57 30 57 56Q57 82 74 98Q91 114 117 114Q145 114 160.5 98Q176 82 176 56Q176 30 160.5 13Q145 -4 117 -4Z"></path><path transform="translate(45.7 8.9502) scale(0.01 -0.01)" d="M300 -9Q178 -9 114.5 84.5Q51 178 51 353Q51 472 79.5 552Q108 632 163.5 673Q219 714 300 714Q423 714 486 622.5Q549 531 549 354Q549 237 520.5 156Q492 75 437 33Q382 -9 300 -9ZM300 70Q380 70 419 139Q458 208 458 354Q458 500 419.5 567.5Q381 635 300 635Q220 635 181 567.5Q142 500 142 354Q142 208 181 139Q220 70 300 70Z"></path><path transform="translate(51.7 8.9502) scale(0.01 -0.01)" d="M117 -4Q91 -4 74 13Q57 30 57 56Q57 82 74 98Q91 114 117 114Q145 114 160.5 98Q176 82 176 56Q176 30 160.5 13Q145 -4 117 -4Z"></path><path transform="translate(54.03 8.9502) scale(0.01 -0.01)" d="M155 0Q136 0 125 11Q114 22 114 40Q114 59 125 69Q136 79 155 79L281 79L281 628L329 628L183 534Q169 525 156.5 526.5Q144 528 135 536.5Q126 545 123 557Q120 569 124.5 581.5Q129 594 144 602L282 692Q297 701 310.5 706.5Q324 712 337 712Q352 712 363 703Q374 694 374 674L374 79L490 79Q510 79 520.5 69Q531 59 531 40Q531 21 520.5 10.5Q510 0 490 0Z"></path><path transform="translate(60.03 8.9502) scale(0.01 -0.01)" d="M62 -33Q57 -48 47.5 -54Q38 -60 26 -60Q14 -60 4.5 -54.5Q-5 -49 -9 -38Q-13 -27 -9 -11L227 722Q232 736 242 742.5Q252 749 263.5 749Q275 749 285 743Q295 737 299 726.5Q303 716 299 700Z"></path><path transform="translate(62.93 8.9502) scale(0.01 -0.01)" d="M130 0Q106 0 94.5 11.5Q83 23 83 43Q83 55 89 67Q95 79 107 91L326 326Q376 379 398 424Q420 469 420 515Q420 573 384.5 603.5Q349 634 281 634Q239 634 200.5 620.5Q162 607 125 579Q111 569 99 570Q87 571 78.5 579.5Q70 588 66.5 599.5Q63 611 67 624Q71 637 84 646Q125 678 179 696Q233 714 290 714Q362 714 411.5 691.5Q461 669 487 626.5Q513 584 513 523Q513 481 499 440.5Q485 400 457.5 358Q430 316 387 271L179 52L179 79L507 79Q527 79 537.5 69Q548 59 548 40Q548 21 537.5 10.5Q527 0 507 0Z"></path><path transform="translate(68.93 8.9502) scale(0.01 -0.01)" d="M417 -7Q395 -7 383 5Q371 17 371 40L371 147L93 147Q71 147 57.5 157Q44 167 44 188Q44 200 50 213Q56 226 71 248L368 681Q379 696 391.5 704Q404 712 420 712Q438 712 450.5 700.5Q463 689 463 665L463 226L531 226Q553 226 564 216Q575 206 575 187Q575 167 564 157Q553 147 531 147L463 147L463 40Q463 17 451 5Q439 -7 417 -7ZM371 226L371 596L396 596L126 201L126 226Z"></path></g></g></a><a href="controller.md#MCU > app > eth0:ctrl"><g transform="translate(81 139) rotate(0 23 7)"><rect x="-3" y="-2.1598" width="43.94" height="15.64" style="fill: #6babe4"></rect><g fill="#1e1e1e"><rect x="-2" y="-1.1598" width="41.94" height="13.64" fill="none" pointer-events="all"></rect><path transform="translate(0 8.9502) scale(0.01 -0.01)" d="M298 -9Q219 -9 162.5 21.5Q106 52 75 108.5Q44 165 44 242Q44 318 74.5 375Q105 432 158.5 464Q212 496 281 496Q330 496 369.5 479.5Q409 463 437 432Q465 401 479.5 356.5Q494 312 494 256Q494 240 484.5 231.5Q475 223 457 223L115 223L115 281L434 281L417 267Q417 319 401.5 355.5Q386 392 356.5 411Q327 430 283 430Q235 430 201 407.5Q167 385 149 344.5Q131 304 131 251L131 245Q131 155 174 109Q217 63 298 63Q330 63 363.5 71Q397 79 428 100Q443 109 455.5 108.5Q468 108 476 100.5Q484 93 486 82.5Q488 72 483 60Q478 48 464 39Q431 16 385.5 3.5Q340 -9 298 -9Z"></path><path transform="translate(5.33 8.9502) scale(0.01 -0.01)" d="M275 -9Q216 -9 176.5 12Q137 33 117.5 73Q98 113 98 171L98 417L34 417Q16 417 6 426.5Q-4 436 -4 452Q-4 469 6 478Q16 487 34 487L98 487L98 596Q98 619 110 630.5Q122 642 144 642Q166 642 177.5 630.5Q189 619 189 596L189 487L310 487Q329 487 339 478Q349 469 349 452Q349 436 339 426.5Q329 417 310 417L189 417L189 179Q189 124 212 96Q235 68 288 68Q307 68 320 71.5Q333 75 343 75Q352 76 358.5 69Q365 62 365 43Q365 29 360.5 17.5Q356 6 343 2Q331 -2 311 -5.5Q291 -9 275 -9Z"></path><path transform="translate(8.99 8.9502) scale(0.01 -0.01)" d="M118 -7Q97 -7 85 5Q73 17 73 40L73 666Q73 689 85 700.5Q97 712 118 712Q140 712 152 700.5Q164 689 164 666L164 381L151 381Q172 438 219.5 467Q267 496 328 496Q387 496 425 474.5Q463 453 482 410Q501 367 501 302L501 40Q501 17 489.5 5Q478 -7 456 -7Q434 -7 422 5Q410 17 410 40L410 297Q410 362 385 392Q360 422 305 422Q241 422 202.5 382.5Q164 343 164 276L164 40Q164 -7 118 -7Z"></path><path transform="translate(14.71 8.9502) scale(0.01 -0.01)" d="M300 -9Q178 -9 114.5 84.5Q51 178 51 353Q51 472 79.5 552Q108 632 163.5 673Q219 714 300 714Q423 714 486 622.5Q549 531 549 354Q549 237 520.5 156Q492 75 437 33Q382 -9 300 -9ZM300 70Q380 70 419 139Q458 208 458 354Q458 500 419.5 567.5Q381 635 300 635Q220 635 181 567.5Q142 500 142 354Q142 208 181 139Q220 70 300 70Z"></path><path transform="translate(20.71 8.9502) scale(0.01 -0.01)" d="M117 -4Q91 -4 74 13Q57 30 57 56Q57 82 74 98Q91 114 117 114Q145 114 160.5 98Q176 82 176 56Q176 30 160.5 13Q145 -4 117 -4ZM117 373Q91 373 74 389.5Q57 406 57 432Q57 458 74 474.5Q91 491 117 491Q145 491 160.5 474.5Q176 458 176 432Q176 406 160.5 389.5Q145 373 117 373Z"></path><path transform="translate(23.04 8.9502) scale(0.01 -0.01)" d="M284 -9Q210 -9 156 22.5Q102 54 73 111.5Q44 169 44 247Q44 305 60.5 351Q77 397 108 429.5Q139 462 183.5 479Q228 496 284 496Q319 496 358 485Q397 474 430 449Q441 441 444 430.5Q447 420 444.5 409Q442 398 434.5 390.5Q427 383 415.5 382Q404 381 391 389Q367 407 340.5 415Q314 423 290 423Q253 423 224.5 411Q196 399 176.5 376.5Q157 354 147 321.5Q137 289 137 246Q137 161 177 112.5Q217 64 290 64Q314 64 340 71.5Q366 79 391 97Q404 105 415 103.5Q426 102 433.5 94.5Q441 87 443 76.5Q445 66 441.5 55Q438 44 427 37Q395 13 357 2Q319 -9 284 -9Z"></path><path transform="translate(27.7 8.9502) scale(0.01 -0.01)" d="M275 -9Q216 -9 176.5 12Q137 33 117.5 73Q98 113 98 171L98 417L34 417Q16 417 6 426.5Q-4 436 -4 452Q-4 469 6 478Q16 487 34 487L98 487L98 596Q98 619 110 630.5Q122 642 144 642Q166 642 177.5 630.5Q189 619 189 596L189 487L310 487Q329 487 339 478Q349 469 349 452Q349 436 339 426.5Q329 417 310 417L189 417L189 179Q189 124 212 96Q235 68 288 68Q307 68 320 71.5Q333 75 343 75Q352 76 358.5 69Q365 62 365 43Q365 29 360.5 17.5Q356 6 343 2Q331 -2 311 -5.5Q291 -9 275 -9Z"></path><path transform="translate(31.28 8.9502) scale(0.01 -0.01)" d="M120 -7Q97 -7 85 5Q73 17 73 40L73 448Q73 471 85 482.5Q97 494 118 494Q139 494 150.5 482.5Q162 471 162 448L162 371L152 371Q168 431 212 462Q256 493 323 497Q339 498 349 489.5Q359 481 360 461Q361 442 351 430.5Q341 419 320 417L302 416Q236 409 200.5 373Q165 337 165 274L165 40Q165 17 153.5 5Q142 -7 120 -7Z"></path><path transform="translate(34.93 8.9502) scale(0.01 -0.01)" d="M226 -9Q151 -9 112 35.5Q73 80 73 164L73 666Q73 689 85 700.5Q97 712 118 712Q140 712 152 700.5Q164 689 164 666L164 171Q164 119 185.5 93.5Q207 68 247 68Q256 68 263 68.5Q270 69 277 70Q288 71 293 64Q298 57 298 36Q298 17 289.5 6.5Q281 -4 262 -7Q253 -8 244 -8.5Q235 -9 226 -9Z"></path></g></g></a><a href="display.md#Panel > eth0:10.0.0.2/24"><g transform="translate(414 139) rotate(0 43 7)"><rect x="8.07" y="-2.1598" width="80.93" height="15.64" style="fill: var(--diagram-halo, #ffffff)"></rect><g fill="#1e1e1e"><rect x="9.07" y="-1.1598" width="78.93" height="13.64" fill="none" pointer-events="all"></rect><path transform="translate(11.07 8.9502) scale(0.01 -0.01)" d="M298 -9Q219 -9 162.5 21.5Q106 52 75 108.5Q44 165 44 242Q44 318 74.5 375Q105 432 158.5 464Q212 496 281 496Q330 496 369.5 479.5Q409 463 437 432Q465 401 479.5 356.5Q494 312 494 256Q494 240 484.5 231.5Q475 223 457 223L115 223L115 281L434 281L417 267Q417 319 401.5 355.5Q386 392 356.5 411Q327 430 283 430Q235 430 201 407.5Q167 385 149 344.5Q131 304 131 251L131 245Q131 155 174 109Q217 63 298 63Q330 63 363.5 71Q397 79 428 100Q443 109 455.5 108.5Q468 108 476 100.5Q484 93 486 82.5Q488 72 483 60Q478 48 464 39Q431 16 385.5 3.5Q340 -9 298 -9Z"></path><path transform="translate(16.4 8.9502) scale(0.01 -0.01)" d="M275 -9Q216 -9 176.5 12Q137 33 117.5 73Q98 113 98 171L98 417L34 417Q16 417 6 426.5Q-4 436 -4 452Q-4 469 6 478Q16 487 34 487L98 487L98 596Q98 619 110 630.5Q122 642 144 642Q166 642 177.5 630.5Q189 619 189 596L189 487L310 487Q329 487 339 478Q349 469 349 452Q349 436 339 426.5Q329 417 310 417L189 417L189 179Q189 124 212 96Q235 68 288 68Q307 68 320 71.5Q333 75 343 75Q352 76 358.5 69Q365 62 365 43Q365 29 360.5 17.5Q356 6 343 2Q331 -2 311 -5.5Q291 -9 275 -9Z"></path><path transform="translate(20.06 8.9502) scale(0.01 -0.01)" d="M118 -7Q97 -7 85 5Q73 17 73 40L73 666Q73 689 85 700.5Q97 712 118 712Q140 712 152 700.5Q164 689 164 666L164 381L151 381Q172 438 219.5 467Q267 496 328 496Q387 496 425 474.5Q463 453 482 410Q501 367 501 302L501 40Q501 17 489.5 5Q478 -7 456 -7Q434 -7 422 5Q410 17 410 40L410 297Q410 362 385 392Q360 422 305 422Q241 422 202.5 382.5Q164 343 164 276L164 40Q164 -7 118 -7Z"></path><path transform="translate(25.78 8.9502) scale(0.01 -0.01)" d="M300 -9Q178 -9 114.5 84.5Q51 178 51 353Q51 472 79.5 552Q108 632 163.5 673Q219 714 300 714Q423 714 486 622.5Q549 531 549 354Q549 237 520.5 156Q492 75 437 33Q382 -9 300 -9ZM300 70Q380 70 419 139Q458 208 458 354Q458 500 419.5 567.5Q381 635 300 635Q220 635 181 567.5Q142 500 142 354Q142 208 181 139Q220 70 300 70Z"></path><path transform="translate(31.78 8.9502) scale(0.01 -0.01)" d="M117 -4Q91 -4 74 13Q57 30 57 56Q57 82 74 98Q91 114 117 114Q145 114 160.5 98Q176 82 176 56Q176 30 160.5 13Q145 -4 117 -4ZM117 373Q91 373 74 389.5Q57 406 57 432Q57 458 74 474.5Q91 491 117 491Q145 491 160.5 474.5Q176 458 176 432Q176 406 160.5 389.5Q145 373 117 373Z"></path><path transform="translate(34.11 8.9502) scale(0.01 -0.01)" d="M155 0Q136 0 125 11Q114 22 114 40Q114 59 125 69Q136 79 155 79L281 79L281 628L329 628L183 534Q169 525 156.5 526.5Q144 528 135 536.5Q126 545 123 557Q120 569 124.5 581.5Q129 594 144 602L282 692Q297 701 310.5 706.5Q324 712 337 712Q352 712 363 703Q374 694 374 674L374 79L490 79Q510 79 520.5 69Q531 59 531 40Q531 21 520.5 10.5Q510 0 490 0Z"></path><path transform="translate(40.11 8.9502) scale(0.01 -0.01)" d="M300 -9Q178 -9 114.5 84.5Q51 178 51 353Q51 472 79.5 552Q108 632 163.5 673Q219 714 300 714Q423 714 486 622.5Q549 531 549 354Q549 237 520.5 156Q492 75 437 33Q382 -9 300 -9ZM300 70Q380 70 419 139Q458 208 458 354Q458 500 419.5 567.5Q381 635 300 635Q220 635 181 567.5Q142 500 142 354Q142 208 181 139Q220 70 300 70Z"></path><path transform="translate(46.11 8.9502) scale(0.01 -0.01)" d="M117 -4Q91 -4 74 13Q57 30 57 56Q57 82 74 98Q91 114 117 114Q145 114 160.5 98Q176 82 176 56Q176 30 160.5 13Q145 -4 117 -4Z"></path><path transform="translate(48.44 8.9502) scale(0.01 -0.01)" d="M300 -9Q178 -9 114.5 84.5Q51 178 51 353Q51 472 79.5 552Q108 632 163.5 673Q219 714 300 714Q423 714 486 622.5Q549 531 549 354Q549 237 520.5 156Q492 75 437 33Q382 -9 300 -9ZM300 70Q380 70 419 139Q458 208 458 354Q458 500 419.5 567.5Q381 635 300 635Q220 635 181 567.5Q142 500 142 354Q142 208 181 139Q220 70 300 70Z"></path><path transform="translate(54.44 8.9502) scale(0.01 -0.01)" d="M117 -4Q91 -4 74 13Q57 30 57 56Q57 82 74 98Q91 114 117 114Q145 114 160.5 98Q176 82 176 56Q176 30 160.5 13Q145 -4 117 -4Z"></path><path transform="translate(56.77 8.9502) scale(0.01 -0.01)" d="M300 -9Q178 -9 114.5 84.5Q51 178 51 353Q51 472 79.5 552Q108 632 163.5 673Q219 714 300 714Q423 714 486 622.5Q549 531 549 354Q549 237 520.5 156Q492 75 437 33Q382 -9 300 -9ZM300 70Q380 70 419 139Q458 208 458 354Q458 500 419.5 567.5Q381 635 300 635Q220 635 181 567.5Q142 500 142 354Q142 208 181 139Q220 70 300 70Z"></path><path transform="translate(62.77 8.9502) scale(0.01 -0.01)" d="M117 -4Q91 -4 74 13Q57 30 57 56Q57 82 74 98Q91 114 117 114Q145 114 160.5 98Q176 82 176 56Q176 30 160.5 13Q145 -4 117 -4Z"></path><path transform="translate(65.1 8.9502) scale(0.01 -0.01)" d="M130 0Q106 0 94.5 11.5Q83 23 83 43Q83 55 89 67Q95 79 107 91L326 326Q376 379 398 424Q420 469 420 515Q420 573 384.5 603.5Q349 634 281 634Q239 634 200.5 620.5Q162 607 125 579Q111 569 99 570Q87 571 78.5 579.5Q70 588 66.5 599.5Q63 611 67 624Q71 637 84 646Q125 678 179 696Q233 714 290 714Q362 714 411.5 691.5Q461 669 487 626.5Q513 584 513 523Q513 481 499 440.5Q485 400 457.5 358Q430 316 387 271L179 52L179 79L507 79Q527 79 537.5 69Q548 59 548 40Q548 21 537.5 10.5Q527 0 507 0Z"></path><path transform="translate(71.1 8.9502) scale(0.01 -0.01)" d="M62 -33Q57 -48 47.5 -54Q38 -60 26 -60Q14 -60 4.5 -54.5Q-5 -49 -9 -38Q-13 -27 -9 -11L227 722Q232 736 242 742.5Q252 749 263.5 749Q275 749 285 743Q295 737 299 726.5Q303 716 299 700Z"></path><path transform="translate(74 8.9502) scale(0.01 -0.01)" d="M130 0Q106 0 94.5 11.5Q83 23 83 43Q83 55 89 67Q95 79 107 91L326 326Q376 379 398 424Q420 469 420 515Q420 573 384.5 603.5Q349 634 281 634Q239 634 200.5 620.5Q162 607 125 579Q111 569 99 570Q87 571 78.5 579.5Q70 588 66.5 599.5Q63 611 67 624Q71 637 84 646Q125 678 179 696Q233 714 290 714Q362 714 411.5 691.5Q461 669 487 626.5Q513 584 513 523Q513 481 499 440.5Q485 400 457.5 358Q430 316 387 271L179 52L179 79L507 79Q527 79 537.5 69Q548 59 548 40Q548 21 537.5 10.5Q527 0 507 0Z"></path><path transform="translate(80 8.9502) scale(0.01 -0.01)" d="M417 -7Q395 -7 383 5Q371 17 371 40L371 147L93 147Q71 147 57.5 157Q44 167 44 188Q44 200 50 213Q56 226 71 248L368 681Q379 696 391.5 704Q404 712 420 712Q438 712 450.5 700.5Q463 689 463 665L463 226L531 226Q553 226 564 216Q575 206 575 187Q575 167 564 157Q553 147 531 147L463 147L463 40Q463 17 451 5Q439 -7 417 -7ZM371 226L371 596L396 596L126 201L126 226Z"></path></g></g></a></svg>