<svg version="1.1" xmlns="http://www.w3.org/2000/svg" viewBox="0 0 396 166" width="396" height="166"><!-- svg-source:excalidraw --><metadata></metadata><defs><style class="style-fonts">
      </style></defs><g stroke-linecap="round" transform="translate(10 10) rotate(0 78 54.5)"><path d="M27.25 0 C63.21 0, 99.16 0, 128.75 0 M128.75 0 C146.92 0, 156 9.08, 156 27.25 M156 27.25 C156 41.88, 156 56.51, 156 81.75 M156 81.75 C156 99.92, 146.92 109, 128.75 109 M128.75 109 C93.22 109, 57.7 109, 27.25 109 M27.25 109 C9.08 109, 0 99.92, 0 81.75 M0 81.75 C0 61.61, 0 41.47, 0 27.25 M0 27.25 C0 9.08, 9.08 0, 27.25 0" stroke="#1c7ed6" stroke-width="1.5" fill="none" stroke-dasharray="1.5 7"></path></g><a href="controller.svg"><g transform="translate(24 20) rotate(0 38.5 11)"><rect x="-3" y="-2.8557" width="78.704" height="23.824" style="fill: var(--diagram-halo, #ffffff)"></rect><g fill="#1c7ed6"><rect x="-2" y="-1.8557" width="76.704" height="21.824" fill="none" pointer-events="all"></rect><path transform="translate(0 14.3203) scale(0.016 -0.016)" d="M395 -9Q290 -9 215 35Q140 79 99.5 160.5Q59 242 59 353Q59 436 82 502.5Q105 569 148 616.5Q191 664 253.5 689Q316 714 395 714Q455 714 510.5 697Q566 680 606 649Q622 638 627 624Q632 610 628.5 597.5Q625 585 615.5 576.5Q606 568 592 567.5Q578 567 562 578Q527 605 485.5 617.5Q444 630 397 630Q320 630 266.5 597.5Q213 565 185.5 503.5Q158 442 158 353Q158 265 185.5 202.5Q213 140 266.5 107.5Q320 75 397 75Q444 75 486.5 88Q529 101 565 128Q581 139 594.5 138Q608 137 617 129.5Q626 122 629.5 109.5Q633 97 629 84Q625 71 611 61Q570 26 513.5 8.5Q457 -9 395 -9Z"></path><path transform="translate(10.24 14.3203) scale(0.016 -0.016)" d="M280 -9Q208 -9 155 22Q102 53 73 110Q44 167 44 244Q44 302 60.5 348.5Q77 395 108 428Q139 461 182.5 478.5Q226 496 280 496Q352 496 405 465Q458 434 487 377.5Q516 321 516 244Q516 186 499.5 139Q483 92 452 59Q421 26 377.5 8.5Q334 -9 280 -9ZM280 63Q324 63 356.5 84Q389 105 406.5 145Q424 185 424 244Q424 332 385 378Q346 424 280 424Q237 424 204.5 403.5Q172 383 154 343Q136 303 136 244Q136 156 175.5 109.5Q215 63 280 63Z"></path><path transform="translate(19.2 14.3203) scale(0.016 -0.016)" d="M118 -7Q97 -7 85 5Q73 17 73 40L73 448Q73 471 85 482.5Q97 494 118 494Q139 494 150.5 482.5Q162 471 162 448L162 366L151 381Q172 438 219.5 467Q267 496 328 496Q387 496 425 475Q463 454 482 411Q501 368 501 302L501 40Q501 17 489.5 5Q478 -7 456 -7Q434 -7 422 5Q410 17 410 40L410 297Q410 362 385 392Q360 422 305 422Q241 422 202.5 382.5Q164 343 164 276L164 40Q164 -7 118 -7Z"></path><path transform="translate(28.352 14.3203) scale(0.016 -0.016)" d="M275 -9Q216 -9 176.5 12Q137 33 117.5 73Q98 113 98 171L98 417L34 417Q16 417 6 426.5Q-4 436 -4 452Q-4 469 6 478Q16 487 34 487L98 487L98 596Q98 619 110 630.5Q122 642 144 642Q166 642 177.5 630.5Q189 619 189 596L189 487L310 487Q329 487 339 478Q349 469 349 452Q349 436 339 426.5Q329 417 310 417L189 417L189 179Q189 124 212 96Q235 68 288 68Q307 68 320 71.5Q333 75 343 75Q352 76 358.5 69Q365 62 365 43Q365 29 360.5 17.5Q356 6 343 2Q331 -2 311 -5.5Q291 -9 275 -9Z"></path><path transform="translate(34.08 14.3203) scale(0.016 -0.016)" d="M120 -7Q97 -7 85 5Q73 17 73 40L73 448Q73 471 85 482.5Q97 494 118 494Q139 494 150.5 482.5Q162 471 162 448L162 371L152 371Q168 431 212 462Q256 493 323 497Q339 498 349 489.5Q359 481 360 461Q361 442 351 430.5Q341 419 320 417L302 416Q236 409 200.5 373Q165 337 165 274L165 40Q165 17 153.5 5Q142 -7 120 -7Z"></path><path transform="translate(39.808 14.3203) scale(0.016 -0.016)" d="M280 -9Q208 -9 155 22Q102 53 73 110Q44 167 44 244Q44 302 60.5 348.5Q77 395 108 428Q139 461 182.5 478.5Q226 496 280 496Q352 496 405 465Q458 434 487 377.5Q516 321 516 244Q516 186 499.5 139Q483 92 452 59Q421 26 377.5 8.5Q334 -9 280 -9ZM280 63Q324 63 356.5 84Q389 105 406.5 145Q424 185 424 244Q424 332 385 378Q346 424 280 424Q237 424 204.5 403.5Q172 383 154 343Q136 303 136 244Q136 156 175.5 109.5Q215 63 280 63Z"></path><path transform="translate(48.768 14.3203) scale(0.016 -0.016)" d="M226 -9Q151 -9 112 35.5Q73 80 73 164L73 666Q73 689 85 700.5Q97 712 118 712Q140 712 152 700.5Q164 689 164 666L164 171Q164 119 185.5 93.5Q207 68 247 68Q256 68 263 68.5Q270 69 277 70Q288 71 293 64Q298 57 298 36Q298 17 289.5 6.5Q281 -4 262 -7Q253 -8 244 -8.5Q235 -9 226 -9Z"></path><path transform="translate(53.584 14.3203) scale(0.016 -0.016)" d="M226 -9Q151 -9 112 35.5Q73 80 73 164L73 666Q73 689 85 700.5Q97 712 118 712Q140 712 152 700.5Q164 689 164 666L164 171Q164 119 185.5 93.5Q207 68 247 68Q256 68 263 68.5Q270 69 277 70Q288 71 293 64Q298 57 298 36Q298 17 289.5 6.5Q281 -4 262 -7Q253 -8 244 -8.5Q235 -9 226 -9Z"></path><path transform="translate(58.32 14.3203) scale(0.016 -0.016)" d="M298 -9Q219 -9 162.5 21.5Q106 52 75 108.5Q44 165 44 242Q44 318 74.5 375Q105 432 158.5 464Q212 496 281 496Q330 496 369.5 479.5Q409 463 437 432Q465 401 479.5 356.5Q494 312 494 256Q494 240 484.5 231.5Q475 223 457 223L115 223L115 281L434 281L417 267Q417 319 401.5 355.5Q386 392 356.5 411Q327 430 283 430Q235 430 201 407.5Q167 385 149 344.5Q131 304 131 251L131 245Q131 155 174 109Q217 63 298 63Q330 63 363.5 71Q397 79 428 100Q443 109 455.5 108.5Q468 108 476 100.5Q484 93 486 82.5Q488 72 483 60Q478 48 464 39Q431 16 385.5 3.5Q340 -9 298 -9Z"></path><path transform="translate(66.864 14.3203) scale(0.016 -0.016)" d="M120 -7Q97 -7 85 5Q73 17 73 40L73 448Q73 471 85 482.5Q97 494 118 494Q139 494 150.5 482.5Q162 471 162 448L162 371L152 371Q168 431 212 462Q256 493 323 497Q339 498 349 489.5Q359 481 360 461Q361 442 351 430.5Q341 419 320 417L302 416Q236 409 200.5 373Q165 337 165 274L165 40Q165 17 153.5 5Q142 -7 120 -7Z"></path></g></g></a><g stroke-linecap="round" transform="translate(26 50) rotate(0 23 26.5)"><path d="M0 0 L46 0 L46 53 L0 53" stroke="none" stroke-width="0" fill="#6babe4"></path><path d="M0 0 C11.91 0, 23.81 0, 46 0 M0 0 C17.29 0, 34.57 0, 46 0 M46 0 C46 19.07, 46 38.13, 46 53 M46 0 C46 14.99, 46 29.99, 46 53 M46 53 C32.12 53, 18.24 53, 0 53 M46 53 C33.36 53, 20.72 53, 0 53 M0 53 C0 33.48, 0 13.97, 0 0 M0 53 C0 33.37, 0 13.75, 0 0" stroke="transparent" stroke-width="2" fill="none"></path></g><a href="controller-mcu.svg"><g transform="translate(31 55) rotate(0 18 9)"><rect x="-3" y="-2.6237" width="37.696" height="21.096" style="fill: #6babe4"></rect><g fill="#1e1e1e"><rect x="-2" y="-1.6237" width="35.696" height="19.096" fill="none" pointer-events="all"></rect><path transform="translate(0 12.5303) scale(0.014 -0.014)" d="M129 -7Q109 -7 98 5Q87 17 87 37L87 668Q87 689 98.5 700.5Q110 712 130 712Q148 712 158.5 705Q169 698 178 681L446 178L415 178L683 681Q692 698 702 705Q712 712 730 712Q750 712 761 700.5Q772 689 772 668L772 37Q772 17 761.5 5Q751 -7 730 -7Q709 -7 698.5 5Q688 17 688 37L688 576L710 576L470 127Q462 114 453.5 107.5Q445 101 430 101Q416 101 406.5 108Q397 115 390 127L147 577L171 577L171 37Q171 17 160.5 5Q150 -7 129 -7Z"></path><path transform="translate(12.012 12.5303) scale(0.014 -0.014)" d="M395 -9Q290 -9 215 35Q140 79 99.5 160.5Q59 242 59 353Q59 436 82 502.5Q105 569 148 616.5Q191 664 253.5 689Q316 714 395 714Q455 714 510.5 697Q566 680 606 649Q622 638 627 624Q632 610 628.5 597.5Q625 585 615.5 576.5Q606 568 592 567.5Q578 567 562 578Q527 605 485.5 617.5Q444 630 397 630Q320 630 266.5 597.5Q213 565 185.5 503.5Q158 442 158 353Q158 265 185.5 202.5Q213 140 266.5 107.5Q320 75 397 75Q444 75 486.5 88Q529 101 565 128Q581 139 594.5 138Q608 137 617 129.5Q626 122 629.5 109.5Q633 97 629 84Q625 71 611 61Q570 26 513.5 8.5Q457 -9 395 -9Z"></path><path transform="translate(21.462 12.5303) scale(0.014 -0.014)" d="M366 -9Q296 -9 242.5 9.5Q189 28 153 64.5Q117 101 98.5 155.5Q80 210 80 282L80 665Q80 689 92 700.5Q104 712 126 712Q149 712 161 700.5Q173 689 173 665L173 285Q173 178 222 125.5Q271 73 366 73Q461 73 510 125.5Q559 178 559 285L559 665Q559 689 571 700.5Q583 712 605 712Q627 712 639 700.5Q651 689 651 665L651 282Q651 187 618.5 122Q586 57 522.5 24Q459 -9 366 -9Z"></path></g></g></a><g stroke-linecap="round" transform="translate(72 75) rotate(0 4 4)"><path d="M2 0 C2.9 0, 3.79 0, 6 0 C7.33 0, 8 0.67, 8 2 C8 3.29, 8 4.58, 8 6 C8 7.33, 7.33 8, 6 8 C4.46 8, 2.92 8, 2 8 C0.67 8, 0 7.33, 0 6 C0 4.64, 0 3.27, 0 2 C0 0.67, 0.67 0, 2 0" stroke="none" stroke-width="0" fill="#1e1e1e"></path><path d="M2 0 C3.55 0, 5.1 0, 6 0 M2 0 C3.52 0, 5.03 0, 6 0 M6 0 C7.33 0, 8 0.67, 8 2 M6 0 C7.33 0, 8 0.67, 8 2 M8 2 C8 3.46, 8 4.91, 8 6 M8 2 C8 3.56, 8 5.12, 8 6 M8 6 C8 7.33, 7.33 8, 6 8 M8 6 C8 7.33, 7.33 8, 6 8 M6 8 C4.79 8, 3.58 8, 2 8 M6 8 C4.55 8, 3.1 8, 2 8 M2 8 C0.67 8, 0 7.33, 0 6 M2 8 C0.67 8, 0 7.33, 0 6 M0 6 C0 4.47, 0 2.93, 0 2 M0 6 C0 4.56, 0 3.11, 0 2 M0 2 C0 0.67, 0.67 0, 2 0 M0 2 C0 0.67, 0.67 0, 2 0" stroke="#1e1e1e" stroke-width="1" fill="none"></path></g><g stroke-linecap="round" transform="translate(253 10) rotate(0 66.5 73)"><path d="M32 0 C54.16 0, 76.32 0, 101 0 M101 0 C122.33 0, 133 10.67, 133 32 M133 32 C133 52.01, 133 72.03, 133 114 M133 114 C133 135.33, 122.33 146, 101 146 M101 146 C85.18 146, 69.36 146, 32 146 M32 146 C10.67 146, 0 135.33, 0 114 M0 114 C0 89.76, 0 65.51, 0 32 M0 32 C0 10.67, 10.67 0, 32 0" stroke="#f76707" stroke-width="1.5" fill="none" stroke-dasharray="1.5 7"></path></g><g transform="translate(267 20) rotate(0 27 11)"><rect x="-3" y="-2.8557" width="56.112" height="23.824" style="fill: var(--diagram-halo, #ffffff)"></rect><g fill="#f76707"><path transform="translate(0 14.3203) scale(0.016 -0.016)" d="M316 -9Q269 -9 225 -1.5Q181 6 142 21Q103 36 72 58Q59 67 53.5 80Q48 93 50.5 105.5Q53 118 61.5 127Q70 136 82 138Q94 140 108 130Q154 99 204.5 85Q255 71 316 71Q404 71 445.5 103Q487 135 487 187Q487 230 457 254.5Q427 279 356 293L250 315Q156 335 109.5 381Q63 427 63 504Q63 551 82 589.5Q101 628 136 656Q171 684 218.5 699Q266 714 324 714Q386 714 440.5 697Q495 680 539 647Q551 638 555 625.5Q559 613 556.5 601Q554 589 545.5 581Q537 573 524.5 572Q512 571 497 581Q457 609 415 621.5Q373 634 323 634Q272 634 234.5 618Q197 602 176.5 573.5Q156 545 156 507Q156 461 184 435Q212 409 278 395L383 374Q483 353 531.5 309.5Q580 266 580 193Q580 147 561.5 110Q543 73 509 46.5Q475 20 426 5.5Q377 -9 316 -9Z"></path><path transform="translate(9.888 14.3203) scale(0.016 -0.016)" d="M298 -9Q219 -9 162.5 21.5Q106 52 75 108.5Q44 165 44 242Q44 318 74.5 375Q105 432 158.5 464Q212 496 281 496Q330 496 369.5 479.5Q409 463 437 432Q465 401 479.5 356.5Q494 312 494 256Q494 240 484.5 231.5Q475 223 457 223L115 223L115 281L434 281L417 267Q417 319 401.5 355.5Q386 392 356.5 411Q327 430 283 430Q235 430 201 407.5Q167 385 149 344.5Q131 304 131 251L131 245Q131 155 174 109Q217 63 298 63Q330 63 363.5 71Q397 79 428 100Q443 109 455.5 108.5Q468 108 476 100.5Q484 93 486 82.5Q488 72 483 60Q478 48 464 39Q431 16 385.5 3.5Q340 -9 298 -9Z"></path><path transform="translate(18.432 14.3203) scale(0.016 -0.016)" d="M118 -7Q97 -7 85 5Q73 17 73 40L73 448Q73 471 85 482.5Q97 494 118 494Q139 494 150.5 482.5Q162 471 162 448L162 366L151 381Q172 438 219.5 467Q267 496 328 496Q387 496 425 475Q463 454 482 411Q501 368 501 302L501 40Q501 17 489.5 5Q478 -7 456 -7Q434 -7 422 5Q410 17 410 40L410 297Q410 362 385 392Q360 422 305 422Q241 422 202.5 382.5Q164 343 164 276L164 40Q164 -7 118 -7Z"></path><path transform="translate(27.584 14.3203) scale(0.016 -0.016)" d="M241 -9Q196 -9 150.5 1.5Q105 12 65 38Q54 45 49.5 55.5Q45 66 46.5 76.5Q48 87 55 95Q62 103 72.5 104.5Q83 106 95 99Q134 77 170.5 68Q207 59 243 59Q298 59 326 79Q354 99 354 132Q354 160 335.5 175.5Q317 191 278 199L185 218Q123 232 91.5 264.5Q60 297 60 348Q60 393 84.5 426.5Q109 460 153 478Q197 496 254 496Q298 496 337.5 484.5Q377 473 409 450Q421 443 424.5 432.5Q428 422 425.5 411.5Q423 401 416 394Q409 387 398 385.5Q387 384 374 391Q345 411 314.5 419.5Q284 428 254 428Q200 428 172.5 407Q145 386 145 352Q145 326 161.5 309Q178 292 214 284L307 265Q372 251 405 220.5Q438 190 438 138Q438 70 384.5 30.5Q331 -9 241 -9Z"></path><path transform="translate(35.312 14.3203) scale(0.016 -0.016)" d="M280 -9Q208 -9 155 22Q102 53 73 110Q44 167 44 244Q44 302 60.5 348.5Q77 395 108 428Q139 461 182.5 478.5Q226 496 280 496Q352 496 405 465Q458 434 487 377.5Q516 321 516 244Q516 186 499.5 139Q483 92 452 59Q421 26 377.5 8.5Q334 -9 280 -9ZM280 63Q324 63 356.5 84Q389 105 406.5 145Q424 185 424 244Q424 332 385 378Q346 424 280 424Q237 424 204.5 403.5Q172 383 154 343Q136 303 136 244Q136 156 175.5 109.5Q215 63 280 63Z"></path><path transform="translate(44.272 14.3203) scale(0.016 -0.016)" d="M120 -7Q97 -7 85 5Q73 17 73 40L73 448Q73 471 85 482.5Q97 494 118 494Q139 494 150.5 482.5Q162 471 162 448L162 371L152 371Q168 431 212 462Q256 493 323 497Q339 498 349 489.5Q359 481 360 461Q361 442 351 430.5Q341 419 320 417L302 416Q236 409 200.5 373Q165 337 165 274L165 40Q165 17 153.5 5Q142 -7 120 -7Z"></path></g></g><g stroke-linecap="round" transform="translate(330 50) rotate(0 20 45)"><path d="M0 0 L40 0 L40 90 L0 90" stroke="none" stroke-width="0" fill="#f98437"></path><path d="M0 0 C9.62 0, 19.23 0, 40 0 M0 0 C12.68 0, 25.36 0, 40 0 M40 0 C40 20.41, 40 40.81, 40 90 M40 0 C40 28.11, 40 56.22, 40 90 M40 90 C26.9 90, 13.8 90, 0 90 M40 90 C27.32 90, 14.63 90, 0 90 M0 90 C0 68.7, 0 47.4, 0 0 M0 90 C0 54.58, 0 19.16, 0 0" stroke="transparent" stroke-width="2" fill="none"></path></g><a href="sensor-imu.svg"><g transform="translate(335 55) rotate(0 15 9)"><rect x="-3" y="-2.6237" width="31.914" height="21.096" style="fill: #f98437"></rect><g fill="#1e1e1e"><rect x="-2" y="-1.6237" width="29.914" height="19.096" fill="none" pointer-events="all"></rect><path transform="translate(0 12.5303) scale(0.014 -0.014)" d="M131 -7Q109 -7 97 5.5Q85 18 85 41L85 664Q85 688 97 700Q109 712 131 712Q154 712 166 700Q178 688 178 664L178 41Q178 18 166.5 5.5Q155 -7 131 -7Z"></path><path transform="translate(3.668 12.5303) scale(0.014 -0.014)" d="M129 -7Q109 -7 98 5Q87 17 87 37L87 668Q87 689 98.5 700.5Q110 712 130 712Q148 712 158.5 705Q169 698 178 681L446 178L415 178L683 681Q692 698 702 705Q712 712 730 712Q750 712 761 700.5Q772 689 772 668L772 37Q772 17 761.5 5Q751 -7 730 -7Q709 -7 698.5 5Q688 17 688 37L688 576L710 576L470 127Q462 114 453.5 107.5Q445 101 430 101Q416 101 406.5 108Q397 115 390 127L147 577L171 577L171 37Q171 17 160.5 5Q150 -7 129 -7Z"></path><path transform="translate(15.68 12.5303) scale(0.014 -0.014)" d="M366 -9Q296 -9 242.5 9.5Q189 28 153 64.5Q117 101 98.5 155.5Q80 210 80 282L80 665Q80 689 92 700.5Q104 712 126 712Q149 712 161 700.5Q173 689 173 665L173 285Q173 178 222 125.5Q271 73 366 73Q461 73 510 125.5Q559 178 559 285L559 665Q559 689 571 700.5Q583 712 605 712Q627 712 639 700.5Q651 689 651 665L651 282Q651 187 618.5 122Q586 57 522.5 24Q459 -9 366 -9Z"></path></g></g></a><g stroke-linecap="round" transform="translate(322 75) rotate(0 4 4)"><path d="M2 0 C3.33 0, 4.67 0, 6 0 C7.33 0, 8 0.67, 8 2 C8 3.1, 8 4.19, 8 6 C8 7.33, 7.33 8, 6 8 C4.71 8, 3.41 8, 2 8 C0.67 8, 0 7.33, 0 6 C0 4.61, 0 3.23, 0 2 C0 0.67, 0.67 0, 2 0" stroke="none" stroke-width="0" fill="#1e1e1e"></path><path d="M2 0 C3.57 0, 5.14 0, 6 0 M2 0 C3.12 0, 4.25 0, 6 0 M6 0 C7.33 0, 8 0.67, 8 2 M6 0 C7.33 0, 8 0.67, 8 2 M8 2 C8 2.85, 8 3.7, 8 6 M8 2 C8 2.82, 8 3.64, 8 6 M8 6 C8 7.33, 7.33 8, 6 8 M8 6 C8 7.33, 7.33 8, 6 8 M6 8 C4.58 8, 3.16 8, 2 8 M6 8 C4.74 8, 3.47 8, 2 8 M2 8 C0.67 8, 0 7.33, 0 6 M2 8 C0.67 8, 0 7.33, 0 6 M0 6 C0 4.75, 0 3.51, 0 2 M0 6 C0 4.57, 0 3.15, 0 2 M0 2 C0 0.67, 0.67 0, 2 0 M0 2 C0 0.67, 0.67 0, 2 0" stroke="#1e1e1e" stroke-width="1" fill="none"></path></g><g stroke-linecap="round" transform="translate(322 112) rotate(0 4 4)"><path d="M2 0 C3.03 0, 4.05 0, 6 0 C7.33 0, 8 0.67, 8 2 C8 3.21, 8 4.41, 8 6 C8 7.33, 7.33 8, 6 8 C4.71 8, 3.43 8, 2 8 C0.67 8, 0 7.33, 0 6 C0 4.64, 0 3.28, 0 2 C0 0.67, 0.67 0, 2 0" stroke="none" stroke-width="0" fill="#1e1e1e"></path><path d="M2 0 C3.12 0, 4.24 0, 6 0 M2 0 C3.53 0, 5.05 0, 6 0 M6 0 C7.33 0, 8 0.67, 8 2 M6 0 C7.33 0, 8 0.67, 8 2 M8 2 C8 2.92, 8 3.83, 8 6 M8 2 C8 3.33, 8 4.66, 8 6 M8 6 C8 7.33, 7.33 8, 6 8 M8 6 C8 7.33, 7.33 8, 6 8 M6 8 C5.17 8, 4.33 8, 2 8 M6 8 C4.75 8, 3.51 8, 2 8 M2 8 C0.67 8, 0 7.33, 0 6 M2 8 C0.67 8, 0 7.33, 0 6 M0 6 C0 4.48, 0 2.97, 0 2 M0 6 C0 4.51, 0 3.03, 0 2 M0 2 C0 0.67, 0.67 0, 2 0 M0 2 C0 0.67, 0.67 0, 2 0" stroke="#1e1e1e" stroke-width="1" fill="none"></path></g><g stroke-linecap="round"><g transform="translate(76 79) rotate(0 125 0)"><path d="M0 0 C81.21 0, 162.42 0, 250 0 M0 0 C63.87 0, 127.74 0, 250 0" stroke="#f76707" stroke-width="2" fill="none"></path></g><g transform="translate(76 79) rotate(0 125 0)"><path d="M250 0 L236.41 6.34 L236.41 -6.34 L250 0" stroke="none" stroke-width="0" fill="#f76707" fill-rule="evenodd"></path><path d="M250 0 C245.58 2.06, 241.17 4.12, 236.41 6.34 M250 0 C246.53 1.62, 243.05 3.24, 236.41 6.34 M236.41 6.34 C236.41 2.7, 236.41 -0.93, 236.41 -6.34 M236.41 6.34 C236.41 3.48, 236.41 0.63, 236.41 -6.34 M236.41 -6.34 C240.47 -4.45, 244.53 -2.55, 250 0 M236.41 -6.34 C239.17 -5.05, 241.94 -3.76, 250 0 M250 0 C250 0, 250 0, 250 0 M250 0 C250 0, 250 0, 250 0" stroke="#f76707" stroke-width="2" fill="none"></path></g></g><mask></mask><g transform="translate(182.984375 71.5) rotate(0 26.515625 7)"><rect x="-3" y="-2.1598" width="59.03" height="15.64" style="fill: var(--diagram-halo, #ffffff)"></rect><g fill="transparent"><path transform="translate(0 8.9502) scale(0.01 -0.01)" d="M316 -9Q269 -9 225 -1.5Q181 6 142 21Q103 36 72 58Q59 67 53.5 80Q48 93 50.5 105.5Q53 118 61.5 127Q70 136 82 138Q94 140 108 130Q154 99 204.5 85Q255 71 316 71Q404 71 445.5 103Q487 135 487 187Q487 230 457 254.5Q427 279 356 293L250 315Q156 335 109.5 381Q63 427 63 504Q63 551 82 589.5Q101 628 136 656Q171 684 218.5 699Q266 714 324 714Q386 714 440.5 697Q495 680 539 647Q551 638 555 625.5Q559 613 556.5 601Q554 589 545.5 581Q537 573 524.5 572Q512 571 497 581Q457 609 415 621.5Q373 634 323 634Q272 634 234.5 618Q197 602 176.5 573.5Q156 545 156 507Q156 461 184 435Q212 409 278 395L383 374Q483 353 531.5 309.5Q580 266 580 193Q580 147 561.5 110Q543 73 509 46.5Q475 20 426 5.5Q377 -9 316 -9Z"></path><path transform="translate(6.18 8.9502) scale(0.01 -0.01)" d="M298 -9Q219 -9 162.5 21.5Q106 52 75 108.5Q44 165 44 242Q44 318 74.5 375Q105 432 158.5 464Q212 496 281 496Q330 496 369.5 479.5Q409 463 437 432Q465 401 479.5 356.5Q494 312 494 256Q494 240 484.5 231.5Q475 223 457 223L115 223L115 281L434 281L417 267Q417 319 401.5 355.5Q386 392 356.5 411Q327 430 283 430Q235 430 201 407.5Q167 385 149 344.5Q131 304 131 251L131 245Q131 155 174 109Q217 63 298 63Q330 63 363.5 71Q397 79 428 100Q443 109 455.5 108.5Q468 108 476 100.5Q484 93 486 82.5Q488 72 483 60Q478 48 464 39Q431 16 385.5 3.5Q340 -9 298 -9Z"></path><path transform="translate(11.52 8.9502) scale(0.01 -0.01)" d="M118 -7Q97 -7 85 5Q73 17 73 40L73 448Q73 471 85 482.5Q97 494 118 494Q139 494 150.5 482.5Q162 471 162 448L162 366L151 381Q172 438 219.5 467Q267 496 328 496Q387 496 425 475Q463 454 482 411Q501 368 501 302L501 40Q501 17 489.5 5Q478 -7 456 -7Q434 -7 422 5Q410 17 410 40L410 297Q410 362 385 392Q360 422 305 422Q241 422 202.5 382.5Q164 343 164 276L164 40Q164 -7 118 -7Z"></path><path transform="translate(17.24 8.9502) scale(0.01 -0.01)" d="M241 -9Q196 -9 150.5 1.5Q105 12 65 38Q54 45 49.5 55.5Q45 66 46.5 76.5Q48 87 55 95Q62 103 72.5 104.5Q83 106 95 99Q134 77 170.5 68Q207 59 243 59Q298 59 326 79Q354 99 354 132Q354 160 335.5 175.5Q317 191 278 199L185 218Q123 232 91.5 264.5Q60 297 60 348Q60 393 84.5 426.5Q109 460 153 478Q197 496 254 496Q298 496 337.5 484.5Q377 473 409 450Q421 443 424.5 432.5Q428 422 425.5 411.5Q423 401 416 394Q409 387 398 385.5Q387 384 374 391Q345 411 314.5 419.5Q284 428 254 428Q200 428 172.5 407Q145 386 145 352Q145 326 161.5 309Q178 292 214 284L307 265Q372 251 405 220.5Q438 190 438 138Q438 70 384.5 30.5Q331 -9 241 -9Z"></path><path transform="translate(22.07 8.9502) scale(0.01 -0.01)" d="M280 -9Q208 -9 155 22Q102 53 73 110Q44 167 44 244Q44 302 60.5 348.5Q77 395 108 428Q139 461 182.5 478.5Q226 496 280 496Q352 496 405 465Q458 434 487 377.5Q516 321 516 244Q516 186 499.5 139Q483 92 452 59Q421 26 377.5 8.5Q334 -9 280 -9ZM280 63Q324 63 356.5 84Q389 105 406.5 145Q424 185 424 244Q424 332 385 378Q346 424 280 424Q237 424 204.5 403.5Q172 383 154 343Q136 303 136 244Q136 156 175.5 109.5Q215 63 280 63Z"></path><path transform="translate(27.67 8.9502) scale(0.01 -0.01)" d="M120 -7Q97 -7 85 5Q73 17 73 40L73 448Q73 471 85 482.5Q97 494 118 494Q139 494 150.5 482.5Q162 471 162 448L162 371L152 371Q168 431 212 462Q256 493 323 497Q339 498 349 489.5Q359 481 360 461Q361 442 351 430.5Q341 419 320 417L302 416Q236 409 200.5 373Q165 337 165 274L165 40Q165 17 153.5 5Q142 -7 120 -7Z"></path><path transform="translate(31.32 8.9502) scale(0.01 -0.01)" d="M135 0Q111 0 98 13Q85 26 85 50L85 655Q85 679 98 692Q111 705 135 705L328 705Q501 705 594.5 614.5Q688 524 688 353Q688 268 664 202Q640 136 594 91.5Q548 47 481.5 23.5Q415 0 328 0ZM178 79L322 79Q390 79 440 96Q490 113 523.5 147Q557 181 574 232.5Q591 284 591 353Q591 490 523.5 558Q456 626 322 626L178 626Z"></path><path transform="translate(38.79 8.9502) scale(0.01 -0.01)" d="M228 -9Q178 -9 137.5 11Q97 31 74.5 65Q52 99 52 141Q52 195 79 226Q106 257 170 270.5Q234 284 342 284L389 284L389 226L344 226Q267 226 222.5 219Q178 212 160 194.5Q142 177 142 146Q142 107 169.5 82Q197 57 245 57Q283 57 312 75.5Q341 94 358 125.5Q375 157 375 198L375 313Q375 372 351 398.5Q327 425 270 425Q237 425 202 416Q167 407 129 388Q114 381 103 383.5Q92 386 85.5 395.5Q79 405 78.5 416.5Q78 428 83.5 439Q89 450 103 455Q147 477 190.5 486.5Q234 496 272 496Q337 496 379 475.5Q421 455 442 412.5Q463 370 463 304L463 40Q463 17 452 5Q441 -7 420 -7Q400 -7 388.5 5Q377 17 377 40L377 111L386 111Q378 74 356 47Q334 20 301.5 5.5Q269 -9 228 -9Z"></path><path transform="translate(44.12 8.9502) scale(0.01 -0.01)" d="M275 -9Q216 -9 176.5 12Q137 33 117.5 73Q98 113 98 171L98 417L34 417Q16 417 6 426.5Q-4 436 -4 452Q-4 469 6 478Q16 487 34 487L98 487L98 596Q98 619 110 630.5Q122 642 144 642Q166 642 177.5 630.5Q189 619 189 596L189 487L310 487Q329 487 339 478Q349 469 349 452Q349 436 339 426.5Q329 417 310 417L189 417L189 179Q189 124 212 96Q235 68 288 68Q307 68 320 71.5Q333 75 343 75Q352 76 358.5 69Q365 62 365 43Q365 29 360.5 17.5Q356 6 343 2Q331 -2 311 -5.5Q291 -9 275 -9Z"></path><path transform="translate(47.7 8.9502) scale(0.01 -0.01)" d="M228 -9Q178 -9 137.5 11Q97 31 74.5 65Q52 99 52 141Q52 195 79 226Q106 257 170 270.5Q234 284 342 284L389 284L389 226L344 226Q267 226 222.5 219Q178 212 160 194.5Q142 177 142 146Q142 107 169.5 82Q197 57 245 57Q283 57 312 75.5Q341 94 358 125.5Q375 157 375 198L375 313Q375 372 351 398.5Q327 425 270 425Q237 425 202 416Q167 407 129 388Q114 381 103 383.5Q92 386 85.5 395.5Q79 405 78.5 416.5Q78 428 83.5 439Q89 450 103 455Q147 477 190.5 486.5Q234 496 272 496Q337 496 379 475.5Q421 455 442 412.5Q463 370 463 304L463 40Q463 17 452 5Q441 -7 420 -7Q400 -7 388.5 5Q377 17 377 40L377 111L386 111Q378 74 356 47Q334 20 301.5 5.5Q269 -9 228 -9Z"></path></g></g><a href="controller-mcu-app-uart_imu-sensordata-sensor_read.svg"><g transform="translate(182.984375 71.5) rotate(0 26.515625 7)"><g fill="#f76707"><rect x="-2" y="-1.1598" width="57.03" height="13.64" fill="none" pointer-events="all"></rect><path transform="translate(0 8.9502) scale(0.01 -0.01)" d="M316 -9Q269 -9 225 -1.5Q181 6 142 21Q103 36 72 58Q59 67 53.5 80Q48 93 50.5 105.5Q53 118 61.5 127Q70 136 82 138Q94 140 108 130Q154 99 204.5 85Q255 71 316 71Q404 71 445.5 103Q487 135 487 187Q487 230 457 254.5Q427 279 356 293L250 315Q156 335 109.5 381Q63 427 63 504Q63 551 82 589.5Q101 628 136 656Q171 684 218.5 699Q266 714 324 714Q386 714 440.5 697Q495 680 539 647Q551 638 555 625.5Q559 613 556.5 601Q554 589 545.5 581Q537 573 524.5 572Q512 571 497 581Q457 609 415 621.5Q373 634 323 634Q272 634 234.5 618Q197 602 176.5 573.5Q156 545 156 507Q156 461 184 435Q212 409 278 395L383 374Q483 353 531.5 309.5Q580 266 580 193Q580 147 561.5 110Q543 73 509 46.5Q475 20 426 5.5Q377 -9 316 -9Z"></path><path transform="translate(6.18 8.9502) scale(0.01 -0.01)" d="M298 -9Q219 -9 162.5 21.5Q106 52 75 108.5Q44 165 44 242Q44 318 74.5 375Q105 432 158.5 464Q212 496 281 496Q330 496 369.5 479.5Q409 463 437 432Q465 401 479.5 356.5Q494 312 494 256Q494 240 484.5 231.5Q475 223 457 223L115 223L115 281L434 281L417 267Q417 319 401.5 355.5Q386 392 356.5 411Q327 430 283 430Q235 430 201 407.5Q167 385 149 344.5Q131 304 131 251L131 245Q131 155 174 109Q217 63 298 63Q330 63 363.5 71Q397 79 428 100Q443 109 455.5 108.5Q468 108 476 100.5Q484 93 486 82.5Q488 72 483 60Q478 48 464 39Q431 16 385.5 3.5Q340 -9 298 -9Z"></path><path transform="translate(11.52 8.9502) scale(0.01 -0.01)" d="M118 -7Q97 -7 85 5Q73 17 73 40L73 448Q73 471 85 482.5Q97 494 118 494Q139 494 150.5 482.5Q162 471 162 448L162 366L151 381Q172 438 219.5 467Q267 496 328 496Q387 496 425 475Q463 454 482 411Q501 368 501 302L501 40Q501 17 489.5 5Q478 -7 456 -7Q434 -7 422 5Q410 17 410 40L410 297Q410 362 385 392Q360 422 305 422Q241 422 202.5 382.5Q164 343 164 276L164 40Q164 -7 118 -7Z"></path><path transform="translate(17.24 8.9502) scale(0.01 -0.01)" d="M241 -9Q196 -9 150.5 1.5Q105 12 65 38Q54 45 49.5 55.5Q45 66 46.5 76.5Q48 87 55 95Q62 103 72.5 104.5Q83 106 95 99Q134 77 170.5 68Q207 59 243 59Q298 59 326 79Q354 99 354 132Q354 160 335.5 175.5Q317 191 278 199L185 218Q123 232 91.5 264.5Q60 297 60 348Q60 393 84.5 426.5Q109 460 153 478Q197 496 254 496Q298 496 337.5 484.5Q377 473 409 450Q421 443 424.5 432.5Q428 422 425.5 411.5Q423 401 416 394Q409 387 398 385.5Q387 384 374 391Q345 411 314.5 419.5Q284 428 254 428Q200 428 172.5 407Q145 386 145 352Q145 326 161.5 309Q178 292 214 284L307 265Q372 251 405 220.5Q438 190 438 138Q438 70 384.5 30.5Q331 -9 241 -9Z"></path><path transform="translate(22.07 8.9502) scale(0.01 -0.01)" d="M280 -9Q208 -9 155 22Q102 53 73 110Q44 167 44 244Q44 302 60.5 348.5Q77 395 108 428Q139 461 182.5 478.5Q226 496 280 496Q352 496 405 465Q458 434 487 377.5Q516 321 516 244Q516 186 499.5 139Q483 92 452 59Q421 26 377.5 8.5Q334 -9 280 -9ZM280 63Q324 63 356.5 84Q389 105 406.5 145Q424 185 424 244Q424 332 385 378Q346 424 280 424Q237 424 204.5 403.5Q172 383 154 343Q136 303 136 244Q136 156 175.5 109.5Q215 63 280 63Z"></path><path transform="translate(27.67 8.9502) scale(0.01 -0.01)" d="M120 -7Q97 -7 85 5Q73 17 73 40L73 448Q73 471 85 482.5Q97 494 118 494Q139 494 150.5 482.5Q162 471 162 448L162 371L152 371Q168 431 212 462Q256 493 323 497Q339 498 349 489.5Q359 481 360 461Q361 442 351 430.5Q341 419 320 417L302 416Q236 409 200.5 373Q165 337 165 274L165 40Q165 17 153.5 5Q142 -7 120 -7Z"></path><path transform="translate(31.32 8.9502) scale(0.01 -0.01)" d="M135 0Q111 0 98 13Q85 26 85 50L85 655Q85 679 98 692Q111 705 135 705L328 705Q501 705 594.5 614.5Q688 524 688 353Q688 268 664 202Q640 136 594 91.5Q548 47 481.5 23.5Q415 0 328 0ZM178 79L322 79Q390 79 440 96Q490 113 523.5 147Q557 181 574 232.5Q591 284 591 353Q591 490 523.5 558Q456 626 322 626L178 626Z"></path><path transform="translate(38.79 8.9502) scale(0.01 -0.01)" d="M228 -9Q178 -9 137.5 11Q97 31 74.5 65Q52 99 52 141Q52 195 79 226Q106 257 170 270.5Q234 284 342 284L389 284L389 226L344 226Q267 226 222.5 219Q178 212 160 194.5Q142 177 142 146Q142 107 169.5 82Q197 57 245 57Q283 57 312 75.5Q341 94 358 125.5Q375 157 375 198L375 313Q375 372 351 398.5Q327 425 270 425Q237 425 202 416Q167 407 129 388Q114 381 103 383.5Q92 386 85.5 395.5Q79 405 78.5 416.5Q78 428 83.5 439Q89 450 103 455Q147 477 190.5 486.5Q234 496 272 496Q337 496 379 475.5Q421 455 442 412.5Q463 370 463 304L463 40Q463 17 452 5Q441 -7 420 -7Q400 -7 388.5 5Q377 17 377 40L377 111L386 111Q378 74 356 47Q334 20 301.5 5.5Q269 -9 228 -9Z"></path><path transform="translate(44.12 8.9502) scale(0.01 -0.01)" d="M275 -9Q216 -9 176.5 12Q137 33 117.5 73Q98 113 98 171L98 417L34 417Q16 417 6 426.5Q-4 436 -4 452Q-4 469 6 478Q16 487 34 487L98 487L98 596Q98 619 110 630.5Q122 642 144 642Q166 642 177.5 630.5Q189 619 189 596L189 487L310 487Q329 487 339 478Q349 469 349 452Q349 436 339 426.5Q329 417 310 417L189 417L189 179Q189 124 212 96Q235 68 288 68Q307 68 320 71.5Q333 75 343 75Q352 76 358.5 69Q365 62 365 43Q365 29 360.5 17.5Q356 6 343 2Q331 -2 311 -5.5Q291 -9 275 -9Z"></path><path transform="translate(47.7 8.9502) scale(0.01 -0.01)" d="M228 -9Q178 -9 137.5 11Q97 31 74.5 65Q52 99 52 141Q52 195 79 226Q106 257 170 270.5Q234 284 342 284L389 284L389 226L344 226Q267 226 222.5 219Q178 212 160 194.5Q142 177 142 146Q142 107 169.5 82Q197 57 245 57Q283 57 312 75.5Q341 94 358 125.5Q375 157 375 198L375 313Q375 372 351 398.5Q327 425 270 425Q237 425 202 416Q167 407 129 388Q114 381 103 383.5Q92 386 85.5 395.5Q79 405 78.5 416.5Q78 428 83.5 439Q89 450 103 455Q147 477 190.5 486.5Q234 496 272 496Q337 496 379 475.5Q421 455 442 412.5Q463 370 463 304L463 40Q463 17 452 5Q441 -7 420 -7Q400 -7 388.5 5Q377 17 377 40L377 111L386 111Q378 74 356 47Q334 20 301.5 5.5Q269 -9 228 -9Z"></path></g></g></a><a href="controller.md#MCU > UART:sensor"><g transform="translate(85 88) rotate(0 34.5 7)"><rect x="-3" y="-2.1598" width="65.17" height="15.64" style="fill: var(--diagram-halo, #ffffff)"></rect><g fill="#1e1e1e"><rect x="-2" y="-1.1598" width="63.17" height="13.64" fill="none" pointer-events="all"></rect><path transform="translate(0 8.9502) scale(0.01 -0.01)" d="M366 -9Q296 -9 242.5 9.5Q189 28 153 64.5Q117 101 98.5 155.5Q80 210 80 282L80 665Q80 689 92 700.5Q104 712 126 712Q149 712 161 700.5Q173 689 173 665L173 285Q173 178 222 125.5Q271 73 366 73Q461 73 510 125.5Q559 178 559 285L559 665Q559 689 571 700.5Q583 712 605 712Q627 712 639 700.5Q651 689 651 665L651 282Q651 187 618.5 122Q586 57 522.5 24Q459 -9 366 -9Z"></path><path transform="translate(7.26 8.9502) scale(0.01 -0.01)" d="M75 -7Q57 -7 46.5 1Q36 9 34 23Q32 37 40 54L313 672Q322 693 336 702.5Q350 712 367 712Q384 712 397.5 702.5Q411 693 421 672L694 54Q702 37 700.5 22.5Q699 8 689 0.5Q679 -7 661 -7Q641 -7 629 3.5Q617 14 608 34L537 200L580 176L152 176L195 200L124 34Q115 12 104 2.5Q93 -7 75 -7ZM365 600L209 231L185 252L547 252L524 231L367 600Z"></path><path transform="translate(14.59 8.9502) scale(0.01 -0.01)" d="M131 -7Q109 -7 97 5.5Q85 18 85 41L85 658Q85 681 97.5 693Q110 705 132 705L370 705Q484 705 545.5 651.5Q607 598 607 500Q607 436 579 390.5Q551 345 498 321Q445 297 370 297L380 311L402 311Q442 311 471.5 291Q501 271 524 227L616 58Q625 42 624 27Q623 12 613 2.5Q603 -7 584 -7Q564 -7 552 1.5Q540 10 531 27L423 225Q401 267 373 280.5Q345 294 298 294L178 294L178 41Q178 18 166.5 5.5Q155 -7 131 -7ZM178 366L355 366Q435 366 475 399.5Q515 433 515 498Q515 563 475 596Q435 629 355 629L178 629Z"></path><path transform="translate(21.12 8.9502) scale(0.01 -0.01)" d="M304 -7Q281 -7 269 5.5Q257 18 257 41L257 626L38 626Q19 626 8 636.5Q-3 647 -3 666Q-3 685 8 695Q19 705 38 705L569 705Q589 705 599.5 695Q610 685 610 666Q610 647 599.5 636.5Q589 626 569 626L350 626L350 41Q350 18 338.5 5.5Q327 -7 304 -7Z"></path><path transform="translate(26.87 8.9502) scale(0.01 -0.01)" d="M117 -4Q91 -4 74 13Q57 30 57 56Q57 82 74 98Q91 114 117 114Q145 114 160.5 98Q176 82 176 56Q176 30 160.5 13Q145 -4 117 -4ZM117 373Q91 373 74 389.5Q57 406 57 432Q57 458 74 474.5Q91 491 117 491Q145 491 160.5 474.5Q176 458 176 432Q176 406 160.5 389.5Q145 373 117 373Z"></path><path transform="translate(29.2 8.9502) scale(0.01 -0.01)" d="M241 -9Q196 -9 150.5 1.5Q105 12 65 38Q54 45 49.5 55.5Q45 66 46.5 76.5Q48 87 55 95Q62 103 72.5 104.5Q83 106 95 99Q134 77 170.5 68Q207 59 243 59Q298 59 326 79Q354 99 354 132Q354 160 335.5 175.5Q317 191 278 199L185 218Q123 232 91.5 264.5Q60 297 60 348Q60 393 84.5 426.5Q109 460 153 478Q197 496 254 496Q298 496 337.5 484.5Q377 473 409 450Q421 443 424.5 432.5Q428 422 425.5 411.5Q423 401 416 394Q409 387 398 385.5Q387 384 374 391Q345 411 314.5 419.5Q284 428 254 428Q200 428 172.5 407Q145 386 145 352Q145 326 161.5 309Q178 292 214 284L307 265Q372 251 405 220.5Q438 190 438 138Q438 70 384.5 30.5Q331 -9 241 -9Z"></path><path transform="translate(34.03 8.9502) scale(0.01 -0.01)" d="M298 -9Q219 -9 162.5 21.5Q106 52 75 108.5Q44 165 44 242Q44 318 74.5 375Q105 432 158.5 464Q212 496 281 496Q330 496 369.5 479.5Q409 463 437 432Q465 401 479.5 356.5Q494 312 494 256Q494 240 484.5 231.5Q475 223 457 223L115 223L115 281L434 281L417 267Q417 319 401.5 355.5Q386 392 356.5 411Q327 430 283 430Q235 430 201 407.5Q167 385 149 344.5Q131 304 131 251L131 245Q131 155 174 109Q217 63 298 63Q330 63 363.5 71Q397 79 428 100Q443 109 455.5 108.5Q468 108 476 100.5Q484 93 486 82.5Q488 72 483 60Q478 48 464 39Q431 16 385.5 3.5Q340 -9 298 -9Z"></path><path transform="translate(39.37 8.9502) scale(0.01 -0.01)" d="M118 -7Q97 -7 85 5Q73 17 73 40L73 448Q73 471 85 482.5Q97 494 118 494Q139 494 150.5 482.5Q162 471 162 448L162 366L151 381Q172 438 219.5 467Q267 496 328 496Q387 496 425 475Q463 454 482 411Q501 368 501 302L501 40Q501 17 489.5 5Q478 -7 456 -7Q434 -7 422 5Q410 17 410 40L410 297Q410 362 385 392Q360 422 305 422Q241 422 202.5 382.5Q164 343 164 276L164 40Q164 -7 118 -7Z"></path><path transform="translate(45.09 8.9502) scale(0.01 -0.01)" d="M241 -9Q196 -9 150.5 1.5Q105 12 65 38Q54 45 49.5 55.5Q45 66 46.5 76.5Q48 87 55 95Q62 103 72.5 104.5Q83 106 95 99Q134 77 170.5 68Q207 59 243 59Q298 59 326 79Q354 99 354 132Q354 160 335.5 175.5Q317 191 278 199L185 218Q123 232 91.5 264.5Q60 297 60 348Q60 393 84.5 426.5Q109 460 153 478Q197 496 254 496Q298 496 337.5 484.5Q377 473 409 450Q421 443 424.5 432.5Q428 422 425.5 411.5Q423 401 416 394Q409 387 398 385.5Q387 384 374 391Q345 411 314.5 419.5Q284 428 254 428Q200 428 172.5 407Q145 386 145 352Q145 326 161.5 309Q178 292 214 284L307 265Q372 251 405 220.5Q438 190 438 138Q438 70 384.5 30.5Q331 -9 241 -9Z"></path><path transform="translate(49.92 8.9502) scale(0.01 -0.01)" d="M280 -9Q208 -9 155 22Q102 53 73 110Q44 167 44 244Q44 302 60.5 348.5Q77 395 108 428Q139 461 182.5 478.5Q226 496 280 496Q352 496 405 465Q458 434 487 377.5Q516 321 516 244Q516 186 499.5 139Q483 92 452 59Q421 26 377.5 8.5Q334 -9 280 -9ZM280 63Q324 63 356.5 84Q389 105 406.5 145Q424 185 424 244Q424 332 385 378Q346 424 280 424Q237 424 204.5 403.5Q172 383 154 343Q136 303 136 244Q136 156 175.5 109.5Q215 63 280 63Z"></path><path transform="translate(55.52 8.9502) scale(0.01 -0.01)" d="M120 -7Q97 -7 85 5Q73 17 73 40L73 448Q73 471 85 482.5Q97 494 118 494Q139 494 150.5 482.5Q162 471 162 448L162 371L152 371Q168 431 212 462Q256 493 323 497Q339 498 349 489.5Q359 481 360 461Q361 442 351 430.5Q341 419 320 417L302 416Q236 409 200.5 373Q165 337 165 274L165 40Q165 17 153.5 5Q142 -7 120 -7Z"></path></g></g></a><a href="sensor.md#IMU > UART:in"><g transform="translate(272 88) rotate(0 22.5 7)"><rect x="4.71" y="-2.1598" width="43.29" height="15.64" style="fill: var(--diagram-halo, #ffffff)"></rect><g fill="#1e1e1e"><rect x="5.71" y="-1.1598" width="41.29" height="13.64" fill="none" pointer-events="all"></rect><path transform="translate(7.71 8.9502) scale(0.01 -0.01)" d="M366 -9Q296 -9 242.5 9.5Q189 28 153 64.5Q117 101 98.5 155.5Q80 210 80 282L80 665Q80 689 92 700.5Q104 712 126 712Q149 712 161 700.5Q173 689 173 665L173 285Q173 178 222 125.5Q271 73 366 73Q461 73 510 125.5Q559 178 559 285L559 665Q559 689 571 700.5Q583 712 605 712Q627 712 639 700.5Q651 689 651 665L651 282Q651 187 618.5 122Q586 57 522.5 24Q459 -9 366 -9Z"></path><path transform="translate(14.97 8.9502) scale(0.01 -0.01)" d="M75 -7Q57 -7 46.5 1Q36 9 34 23Q32 37 40 54L313 672Q322 693 336 702.5Q350 712 367 712Q384 712 397.5 702.5Q411 693 421 672L694 54Q702 37 700.5 22.5Q699 8 689 0.5Q679 -7 661 -7Q641 -7 629 3.5Q617 14 608 34L537 200L580 176L152 176L195 200L124 34Q115 12 104 2.5Q93 -7 75 -7ZM365 600L209 231L185 252L547 252L524 231L367 600Z"></path><path transform="translate(22.3 8.9502) scale(0.01 -0.01)" d="M131 -7Q109 -7 97 5.5Q85 18 85 41L85 658Q85 681 97.5 693Q110 705 132 705L370 705Q484 705 545.5 651.5Q607 598 607 500Q607 436 579 390.5Q551 345 498 321Q445 297 370 297L380 311L402 311Q442 311 471.5 291Q501 271 524 227L616 58Q625 42 624 27Q623 12 613 2.5Q603 -7 584 -7Q564 -7 552 1.5Q540 10 531 27L423 225Q401 267 373 280.5Q345 294 298 294L178 294L178 41Q178 18 166.5 5.5Q155 -7 131 -7ZM178 366L355 366Q435 366 475 399.5Q515 433 515 498Q515 563 475 596Q435 629 355 629L178 629Z"></path><path transform="translate(28.83 8.9502) scale(0.01 -0.01)" d="M304 -7Q281 -7 269 5.5Q257 18 257 41L257 626L38 626Q19 626 8 636.5Q-3 647 -3 666Q-3 685 8 695Q19 705 38 705L569 705Q589 705 599.5 695Q610 685 610 666Q610 647 599.5 636.5Q589 626 569 626L350 626L350 41Q350 18 338.5 5.5Q327 -7 304 -7Z"></path><path transform="translate(34.58 8.9502) scale(0.01 -0.01)" d="M117 -4Q91 -4 74 13Q57 30 57 56Q57 82 74 98Q91 114 117 114Q145 114 160.5 98Q176 82 176 56Q176 30 160.5 13Q145 -4 117 -4ZM117 373Q91 373 74 389.5Q57 406 57 432Q57 458 74 474.5Q91 491 117 491Q145 491 160.5 474.5Q176 458 176 432Q176 406 160.5 389.5Q145 373 117 373Z"></path><path transform="translate(36.91 8.9502) scale(0.01 -0.01)" d="M118 -5Q97 -5 85 8Q73 21 73 44L73 443Q73 467 85 479.5Q97 492 118 492Q140 492 152 479.5Q164 467 164 443L164 44Q164 21 152.5 8Q141 -5 118 -5ZM118 600Q91 600 75.5 614.5Q60 629 60 653Q60 679 75.5 692.5Q91 706 118 706Q147 706 161.5 692.5Q176 679 176 653Q176 629 161.5 614.5Q147 600 118 600Z"></path><path transform="translate(39.28 8.9502) scale(0.01 -0.01)" d="M118 -7Q97 -7 85 5Q73 17 73 40L73 448Q73 471 85 482.5Q97 494 118 494Q139 494 150.5 482.5Q162 471 162 448L162 366L151 381Q172 438 219.5 467Q267 496 328 496Q387 496 425 475Q463 454 482 411Q501 368 501 302L501 40Q501 17 489.5 5Q478 -7 456 -7Q434 -7 422 5Q410 17 410 40L410 297Q410 362 385 392Q360 422 305 422Q241 422 202.5 382.5Q164 343 164 276L164 40Q164 -7 118 -7Z"></path></g></g></a><a href="sensor.md#IMU > UART:out"><g transform="translate(265 125) rotate(0 26 7)"><rect x="4.97" y="-2.1598" width="50.03" height="15.64" style="fill: var(--diagram-halo, #ffffff)"></rect><g fill="#1e1e1e"><rect x="5.97" y="-1.1598" width="48.03" height="13.64" fill="none" pointer-events="all"></rect><path transform="translate(7.97 8.9502) scale(0.01 -0.01)" d="M366 -9Q296 -9 242.5 9.5Q189 28 153 64.5Q117 101 98.5 155.5Q80 210 80 282L80 665Q80 689 92 700.5Q104 712 126 712Q149 712 161 700.5Q173 689 173 665L173 285Q173 178 222 125.5Q271 73 366 73Q461 73 510 125.5Q559 178 559 285L559 665Q559 689 571 700.5Q583 712 605 712Q627 712 639 700.5Q651 689 651 665L651 282Q651 187 618.5 122Q586 57 522.5 24Q459 -9 366 -9Z"></path><path transform="translate(15.23 8.9502) scale(0.01 -0.01)" d="M75 -7Q57 -7 46.5 1Q36 9 34 23Q32 37 40 54L313 672Q322 693 336 702.5Q350 712 367 712Q384 712 397.5 702.5Q411 693 421 672L694 54Q702 37 700.5 22.5Q699 8 689 0.5Q679 -7 661 -7Q641 -7 629 3.5Q617 14 608 34L537 200L580 176L152 176L195 200L124 34Q115 12 104 2.5Q93 -7 75 -7ZM365 600L209 231L185 252L547 252L524 231L367 600Z"></path><path transform="translate(22.56 8.9502) scale(0.01 -0.01)" d="M131 -7Q109 -7 97 5.5Q85 18 85 41L85 658Q85 681 97.5 693Q110 705 132 705L370 705Q484 705 545.5 651.5Q607 598 607 500Q607 436 579 390.5Q551 345 498 321Q445 297 370 297L380 311L402 311Q442 311 471.5 291Q501 271 524 227L616 58Q625 42 624 27Q623 12 613 2.5Q603 -7 584 -7Q564 -7 552 1.5Q540 10 531 27L423 225Q401 267 373 280.5Q345 294 298 294L178 294L178 41Q178 18 166.5 5.5Q155 -7 131 -7ZM178 366L355 366Q435 366 475 399.5Q515 433 515 498Q515 563 475 596Q435 629 355 629L178 629Z"></path><path transform="translate(29.09 8.9502) scale(0.01 -0.01)" d="M304 -7Q281 -7 269 5.5Q257 18 257 41L257 626L38 626Q19 626 8 636.5Q-3 647 -3 666Q-3 685 8 695Q19 705 38 705L569 705Q589 705 599.5 695Q610 685 610 666Q610 647 599.5 636.5Q589 626 569 626L350 626L350 41Q350 18 338.5 5.5Q327 -7 304 -7Z"></path><path transform="translate(34.84 8.9502) scale(0.01 -0.01)" d="M117 -4Q91 -4 74 13Q57 30 57 56Q57 82 74 98Q91 114 117 114Q145 114 160.5 98Q176 82 176 56Q176 30 160.5 13Q145 -4 117 -4ZM117 373Q91 373 74 389.5Q57 406 57 432Q57 458 74 474.5Q91 491 117 491Q145 491 160.5 474.5Q176 458 176 432Q176 406 160.5 389.5Q145 373 117 373Z"></path><path transform="translate(37.17 8.9502) scale(0.01 -0.01)" d="M280 -9Q208 -9 155 22Q102 53 73 110Q44 167 44 244Q44 302 60.5 348.5Q77 395 108 428Q139 461 182.5 478.5Q226 496 280 496Q352 496 405 465Q458 434 487 377.5Q516 321 516 244Q516 186 499.5 139Q483 92 452 59Q421 26 377.5 8.5Q334 -9 280 -9ZM280 63Q324 63 356.5 84Q389 105 406.5 145Q424 185 424 244Q424 332 385 378Q346 424 280 424Q237 424 204.5 403.5Q172 383 154 343Q136 303 136 244Q136 156 175.5 109.5Q215 63 280 63Z"></path><path transform="translate(42.77 8.9502) scale(0.01 -0.01)" d="M247 -9Q188 -9 148.5 13Q109 35 90 78Q71 121 71 186L71 448Q71 471 82.5 482.5Q94 494 116 494Q138 494 150 482.5Q162 471 162 448L162 186Q162 124 187 94.5Q212 65 266 65Q326 65 363.5 105Q401 145 401 211L401 448Q401 471 412.5 482.5Q424 494 446 494Q468 494 480 482.5Q492 471 492 448L492 40Q492 -7 448 -7Q426 -7 414.5 5Q403 17 403 40L403 127L416 110Q396 52 351.5 21.5Q307 -9 247 -9Z"></path><path transform="translate(48.42 8.9502) scale(0.01 -0.01)" d="M275 -9Q216 -9 176.5 12Q137 33 117.5 73Q98 113 98 171L98 417L34 417Q16 417 6 426.5Q-4 436 -4 452Q-4 469 6 478Q16 487 34 487L98 487L98 596Q98 619 110 630.5Q122 642 144 642Q166 642 177.5 630.5Q189 619 189 596L189 487L310 487Q329 487 339 478Q349 469 349 452Q349 436 339 426.5Q329 417 310 417L189 417L189 179Q189 124 212 96Q235 68 288 68Q307 68 320 71.5Q333 75 343 75Q352 76 358.5 69Q365 62 365 43Q365 29 360.5 17.5Q356 6 343 2Q331 -2 311 -5.5Q291 -9 275 -9Z"></path></g></g></a></svg>